<?xml version="1.0" encoding="utf-8"?>
<!-- Generator: Adobe Illustrator 18.1.1, SVG Export Plug-In . SVG Version: 6.00 Build 0)  -->
<svg version="1.1" id="Layer_1" xmlns="http://www.w3.org/2000/svg" xmlns:xlink="http://www.w3.org/1999/xlink" x="0px" y="0px"
	 viewBox="0 0 250 161.9" enable-background="new 0 0 250 161.9" xml:space="preserve">
<g>
	<path fill-rule="evenodd" clip-rule="evenodd" fill="#333333" d="M12.4,117.4H6.3l-0.7,1.7c-0.2,0.6-0.4,1-0.4,1.4
		c0,0.5,0.2,0.8,0.6,1.1c0.2,0.1,0.8,0.2,1.7,0.3v0.5H1.7v-0.5c0.6-0.1,1.1-0.3,1.5-0.8c0.4-0.4,0.9-1.3,1.5-2.6l6.2-13.8h0.2
		l6.2,14.2c0.6,1.3,1.1,2.2,1.5,2.5c0.3,0.3,0.7,0.4,1.2,0.5v0.5h-8.4v-0.5h0.3c0.7,0,1.1-0.1,1.4-0.3c0.2-0.1,0.3-0.3,0.3-0.6
		c0-0.2,0-0.3-0.1-0.5c0-0.1-0.1-0.4-0.4-1L12.4,117.4L12.4,117.4z M12,116.5l-2.6-6l-2.7,6H12L12,116.5z"/>
	<path fill="#333333" d="M30.8,110.4v9.4c0,0.9,0.1,1.5,0.3,1.7c0.2,0.2,0.5,0.4,1,0.4v0.5h-4.9v-1.6c-0.6,0.7-1.1,1.2-1.7,1.5
		c-0.6,0.3-1.2,0.5-1.9,0.5c-0.7,0-1.3-0.2-1.8-0.6c-0.5-0.4-0.9-0.9-1-1.5c-0.2-0.6-0.3-1.5-0.3-2.9V113c0-0.9-0.1-1.5-0.3-1.7
		c-0.2-0.2-0.5-0.4-1-0.4v-0.5H24v8.2c0,0.9,0,1.4,0.1,1.6c0.1,0.2,0.2,0.4,0.4,0.6c0.2,0.1,0.4,0.2,0.6,0.2c0.3,0,0.6-0.1,0.8-0.2
		c0.3-0.2,0.7-0.7,1.2-1.3V113c0-0.9-0.1-1.5-0.3-1.7c-0.2-0.2-0.5-0.4-1-0.4v-0.5H30.8L30.8,110.4z"/>
	<path fill="#333333" d="M40.4,110.1l0.2,4.1h-0.4c-0.5-1.2-1.1-2-1.6-2.5c-0.6-0.4-1.1-0.7-1.7-0.7c-0.3,0-0.6,0.1-0.9,0.4
		c-0.2,0.2-0.4,0.5-0.4,0.8c0,0.2,0.1,0.5,0.3,0.7c0.3,0.3,1,0.9,2.3,1.8c1.3,0.8,2.1,1.6,2.5,2.2c0.4,0.6,0.6,1.2,0.6,2
		c0,0.7-0.2,1.3-0.5,2c-0.3,0.6-0.8,1.1-1.4,1.5c-0.6,0.3-1.3,0.5-2,0.5c-0.6,0-1.3-0.2-2.3-0.5c-0.3-0.1-0.4-0.1-0.5-0.1
		c-0.3,0-0.5,0.2-0.7,0.6h-0.4l-0.2-4.3h0.4c0.4,1.1,0.9,2,1.6,2.5c0.7,0.6,1.3,0.8,1.9,0.8c0.4,0,0.7-0.1,1-0.4
		c0.3-0.3,0.4-0.6,0.4-0.9c0-0.4-0.1-0.8-0.4-1.1s-0.8-0.7-1.7-1.4c-1.3-0.9-2.1-1.6-2.5-2.1c-0.6-0.7-0.8-1.5-0.8-2.3
		c0-0.9,0.3-1.8,0.9-2.5c0.6-0.7,1.6-1.1,2.8-1.1c0.6,0,1.3,0.2,1.9,0.5c0.2,0.1,0.4,0.2,0.6,0.2c0.2,0,0.3,0,0.4-0.1
		c0.1-0.1,0.2-0.3,0.4-0.5H40.4L40.4,110.1z"/>
	<path fill="#333333" d="M46.7,106v4.4h2.8v1.3h-2.8v7.4c0,0.7,0,1.1,0.1,1.3c0.1,0.2,0.2,0.4,0.3,0.5c0.2,0.1,0.3,0.2,0.4,0.2
		c0.6,0,1.1-0.4,1.6-1.3l0.4,0.3c-0.7,1.6-1.8,2.5-3.4,2.5c-0.8,0-1.4-0.2-1.9-0.6c-0.5-0.4-0.9-0.9-1-1.4c-0.1-0.3-0.1-1.1-0.1-2.4
		v-6.5h-1.6v-0.4c1.1-0.8,2-1.6,2.7-2.4c0.8-0.8,1.4-1.8,2-2.8H46.7L46.7,106z"/>
	<path fill="#333333" d="M55.4,110.4v2.7c0.8-1.2,1.5-2.1,2.1-2.5c0.6-0.4,1.2-0.6,1.7-0.6c0.5,0,0.9,0.1,1.1,0.4
		c0.3,0.3,0.4,0.7,0.4,1.2c0,0.6-0.1,1-0.4,1.3c-0.3,0.3-0.6,0.5-1,0.5c-0.5,0-0.8-0.1-1.2-0.4c-0.3-0.3-0.5-0.5-0.6-0.5
		c-0.1-0.1-0.2-0.1-0.3-0.1c-0.2,0-0.5,0.1-0.7,0.3c-0.3,0.3-0.6,0.7-0.8,1.2c-0.3,0.8-0.4,1.7-0.4,2.7v2.7l0,0.7
		c0,0.5,0,0.8,0.1,0.9c0.1,0.2,0.3,0.4,0.4,0.5c0.2,0.1,0.5,0.2,1,0.2v0.5h-6.5v-0.5c0.5,0,0.9-0.2,1-0.4c0.2-0.2,0.3-0.9,0.3-1.9
		v-6.6c0-0.7,0-1.1-0.1-1.3c-0.1-0.2-0.2-0.4-0.4-0.5c-0.2-0.1-0.4-0.2-0.9-0.2v-0.5H55.4L55.4,110.4z"/>
	<path fill-rule="evenodd" clip-rule="evenodd" fill="#333333" d="M67.4,120.6c-1.5,1.3-2.8,1.9-3.9,1.9c-0.7,0-1.2-0.2-1.7-0.7
		c-0.5-0.5-0.7-1-0.7-1.7c0-0.9,0.4-1.7,1.2-2.5c0.8-0.7,2.5-1.7,5.1-2.9v-1.2c0-0.9-0.1-1.5-0.2-1.7c-0.1-0.2-0.3-0.4-0.5-0.6
		c-0.3-0.2-0.6-0.3-0.9-0.3c-0.6,0-1,0.1-1.4,0.4c-0.2,0.2-0.3,0.3-0.3,0.5c0,0.2,0.1,0.4,0.4,0.7c0.3,0.4,0.5,0.7,0.5,1.1
		c0,0.4-0.2,0.8-0.5,1.1c-0.3,0.3-0.7,0.4-1.2,0.4c-0.5,0-1-0.2-1.4-0.5c-0.4-0.3-0.5-0.7-0.5-1.1c0-0.6,0.2-1.2,0.7-1.8
		c0.5-0.6,1.2-1,2-1.3c0.9-0.3,1.8-0.4,2.7-0.4c1.1,0,2,0.2,2.7,0.7c0.7,0.5,1.1,1,1.3,1.6c0.1,0.4,0.2,1.2,0.2,2.5v4.6
		c0,0.5,0,0.9,0.1,1c0,0.1,0.1,0.2,0.2,0.3c0.1,0.1,0.2,0.1,0.3,0.1c0.2,0,0.4-0.2,0.7-0.5l0.4,0.3c-0.4,0.6-0.9,1.1-1.3,1.4
		c-0.5,0.3-1,0.4-1.5,0.4c-0.7,0-1.2-0.2-1.6-0.5C67.7,121.7,67.4,121.2,67.4,120.6L67.4,120.6z M67.4,119.6v-4
		c-1,0.6-1.8,1.3-2.3,1.9c-0.3,0.5-0.5,0.9-0.5,1.4c0,0.4,0.1,0.7,0.4,1c0.2,0.2,0.5,0.3,0.9,0.3C66.3,120.4,66.8,120.1,67.4,119.6
		L67.4,119.6z"/>
	<path fill="#333333" d="M77.8,105v14.9c0,0.8,0.1,1.4,0.3,1.6c0.2,0.2,0.6,0.4,1.2,0.4v0.5h-6.5v-0.5c0.5,0,0.9-0.2,1.2-0.5
		c0.2-0.2,0.3-0.7,0.3-1.6v-12.4c0-0.8-0.1-1.4-0.3-1.6c-0.2-0.2-0.6-0.4-1.1-0.4V105H77.8L77.8,105z"/>
	<path fill-rule="evenodd" clip-rule="evenodd" fill="#333333" d="M83.2,104.6c0.6,0,1,0.2,1.4,0.6c0.4,0.4,0.6,0.8,0.6,1.4
		c0,0.5-0.2,1-0.6,1.4c-0.4,0.4-0.8,0.6-1.4,0.6c-0.5,0-1-0.2-1.4-0.6c-0.4-0.4-0.6-0.8-0.6-1.4c0-0.5,0.2-1,0.6-1.4
		C82.2,104.8,82.7,104.6,83.2,104.6L83.2,104.6z M85,110.4v9.5c0,0.8,0.1,1.4,0.3,1.6c0.2,0.2,0.6,0.4,1.2,0.4v0.5H80v-0.5
		c0.5,0,0.9-0.2,1.2-0.5c0.2-0.2,0.3-0.7,0.3-1.6v-7c0-0.8-0.1-1.4-0.3-1.6c-0.2-0.2-0.6-0.4-1.1-0.4v-0.5H85L85,110.4z"/>
	<path fill-rule="evenodd" clip-rule="evenodd" fill="#333333" d="M93.4,120.6c-1.5,1.3-2.8,1.9-3.9,1.9c-0.7,0-1.2-0.2-1.7-0.7
		c-0.5-0.5-0.7-1-0.7-1.7c0-0.9,0.4-1.7,1.2-2.5c0.8-0.7,2.5-1.7,5.1-2.9v-1.2c0-0.9-0.1-1.5-0.2-1.7c-0.1-0.2-0.3-0.4-0.5-0.6
		c-0.3-0.2-0.6-0.3-0.9-0.3c-0.6,0-1,0.1-1.4,0.4c-0.2,0.2-0.3,0.3-0.3,0.5c0,0.2,0.1,0.4,0.4,0.7c0.3,0.4,0.5,0.7,0.5,1.1
		c0,0.4-0.2,0.8-0.5,1.1c-0.3,0.3-0.7,0.4-1.2,0.4c-0.5,0-1-0.2-1.4-0.5c-0.4-0.3-0.5-0.7-0.5-1.1c0-0.6,0.2-1.2,0.7-1.8
		c0.5-0.6,1.2-1,2-1.3c0.9-0.3,1.8-0.4,2.7-0.4c1.1,0,2,0.2,2.7,0.7c0.7,0.5,1.1,1,1.3,1.6c0.1,0.4,0.2,1.2,0.2,2.5v4.6
		c0,0.5,0,0.9,0.1,1c0,0.1,0.1,0.2,0.2,0.3c0.1,0.1,0.2,0.1,0.3,0.1c0.2,0,0.4-0.2,0.7-0.5l0.4,0.3c-0.4,0.6-0.9,1.1-1.3,1.4
		c-0.5,0.3-1,0.4-1.5,0.4c-0.7,0-1.2-0.2-1.6-0.5C93.7,121.7,93.5,121.2,93.4,120.6L93.4,120.6z M93.4,119.6v-4
		c-1,0.6-1.8,1.3-2.3,1.9c-0.3,0.5-0.5,0.9-0.5,1.4c0,0.4,0.1,0.7,0.4,1c0.2,0.2,0.5,0.3,0.9,0.3C92.4,120.4,92.9,120.1,93.4,119.6
		L93.4,119.6z"/>
	<path fill="#333333" d="M103.8,110.4v1.5c0.6-0.7,1.2-1.1,1.8-1.4c0.6-0.3,1.2-0.5,1.8-0.5c0.8,0,1.4,0.2,1.9,0.7
		c0.5,0.4,0.9,1,1,1.6c0.1,0.5,0.2,1.4,0.2,2.8v4.7c0,0.9,0.1,1.5,0.2,1.7c0.2,0.2,0.5,0.4,1,0.4v0.5h-6v-0.5c0.5-0.1,0.8-0.2,1-0.6
		c0.1-0.2,0.2-0.7,0.2-1.6v-5.3c0-1,0-1.6-0.1-1.9c-0.1-0.3-0.2-0.5-0.4-0.6c-0.2-0.1-0.4-0.2-0.6-0.2c-0.7,0-1.4,0.5-2,1.6v6.4
		c0,0.9,0.1,1.5,0.2,1.7c0.2,0.2,0.5,0.4,0.9,0.4v0.5h-6v-0.5c0.5-0.1,0.9-0.2,1.1-0.5c0.1-0.2,0.2-0.7,0.2-1.7V113
		c0-0.9-0.1-1.5-0.3-1.7c-0.2-0.2-0.5-0.4-1-0.4v-0.5H103.8L103.8,110.4z"/>
	<path fill="#333333" d="M135.3,104.6v6.1h-0.5c-0.6-1.7-1.4-2.9-2.6-3.8c-1.1-0.9-2.4-1.3-3.7-1.3c-1.3,0-2.4,0.4-3.2,1.1
		c-0.9,0.7-1.5,1.7-1.8,3c-0.4,1.3-0.5,2.6-0.5,4c0,1.7,0.2,3.1,0.6,4.4c0.4,1.3,1,2.2,1.9,2.8c0.9,0.6,1.9,0.9,3.1,0.9
		c0.4,0,0.8,0,1.3-0.1c0.4-0.1,0.9-0.2,1.4-0.4v-3.6c0-0.7,0-1.1-0.1-1.3c-0.1-0.2-0.3-0.4-0.6-0.5c-0.3-0.2-0.6-0.2-1.1-0.2h-0.4
		v-0.5h8.4v0.5c-0.6,0-1.1,0.1-1.3,0.3c-0.2,0.1-0.4,0.3-0.6,0.7c-0.1,0.2-0.1,0.6-0.1,1.2v3.6c-1.1,0.5-2.3,0.9-3.5,1.1
		c-1.2,0.3-2.4,0.4-3.7,0.4c-1.6,0-3-0.2-4.1-0.7c-1.1-0.5-2-1-2.9-1.8c-0.8-0.7-1.5-1.6-1.9-2.5c-0.6-1.2-0.9-2.5-0.9-3.9
		c0-2.6,0.9-4.8,2.7-6.6c1.8-1.8,4.1-2.7,6.9-2.7c0.9,0,1.6,0.1,2.3,0.2c0.4,0.1,1,0.3,1.8,0.6c0.8,0.3,1.3,0.5,1.5,0.5
		c0.2,0,0.5-0.1,0.7-0.3c0.2-0.2,0.4-0.5,0.6-1H135.3L135.3,104.6z"/>
	<path fill-rule="evenodd" clip-rule="evenodd" fill="#333333" d="M143.6,110c1,0,2,0.3,2.9,0.8c0.9,0.5,1.6,1.3,2,2.3
		c0.5,1,0.7,2.1,0.7,3.2c0,1.7-0.4,3.1-1.3,4.3c-1,1.4-2.5,2.1-4.3,2.1c-1.8,0-3.2-0.6-4.2-1.9c-1-1.3-1.5-2.7-1.5-4.4
		c0-1.7,0.5-3.2,1.5-4.5C140.5,110.7,141.9,110,143.6,110L143.6,110z M143.7,110.9c-0.4,0-0.8,0.2-1.1,0.5c-0.3,0.3-0.5,1-0.6,1.9
		c-0.1,1-0.1,2.3-0.1,4c0,0.9,0.1,1.8,0.2,2.6c0.1,0.6,0.3,1.1,0.6,1.4c0.3,0.3,0.7,0.5,1,0.5c0.4,0,0.7-0.1,1-0.3
		c0.3-0.3,0.6-0.7,0.7-1.2c0.2-0.8,0.3-2.4,0.3-4.9c0-1.4-0.1-2.4-0.2-3c-0.2-0.5-0.4-0.9-0.7-1.2C144.3,111,144,110.9,143.7,110.9
		L143.7,110.9z"/>
	<path fill="#333333" d="M154.9,122.7l-4-9.3c-0.5-1.1-0.9-1.8-1.1-2.1c-0.2-0.2-0.5-0.4-0.9-0.4v-0.5h6.4v0.5
		c-0.4,0-0.7,0.1-0.8,0.2c-0.2,0.2-0.3,0.4-0.3,0.7c0,0.3,0.2,0.9,0.6,1.8l2,4.5l1.6-3.9c0.5-1.1,0.7-1.9,0.7-2.4
		c0-0.3-0.1-0.5-0.3-0.6c-0.2-0.2-0.5-0.3-1-0.3v-0.5h3.9v0.5c-0.4,0.1-0.7,0.2-0.9,0.4c-0.2,0.2-0.6,0.9-1.1,2l-4,9.4H154.9
		L154.9,122.7z"/>
	<path fill-rule="evenodd" clip-rule="evenodd" fill="#333333" d="M170.9,115.9h-6.6c0.1,1.6,0.5,2.8,1.3,3.8
		c0.6,0.7,1.3,1.1,2.1,1.1c0.5,0,1-0.1,1.4-0.4c0.4-0.3,0.9-0.8,1.3-1.5l0.4,0.3c-0.6,1.3-1.4,2.3-2.1,2.8c-0.8,0.5-1.7,0.8-2.7,0.8
		c-1.8,0-3.1-0.7-4-2c-0.7-1.1-1.1-2.5-1.1-4.1c0-2,0.5-3.6,1.6-4.8c1.1-1.2,2.3-1.8,3.8-1.8c1.2,0,2.3,0.5,3.1,1.5
		C170.3,112.5,170.8,114,170.9,115.9L170.9,115.9z M167.7,115.1c0-1.4-0.1-2.3-0.2-2.8c-0.1-0.5-0.4-0.9-0.7-1.2
		c-0.2-0.2-0.4-0.2-0.7-0.2c-0.4,0-0.8,0.2-1.1,0.7c-0.5,0.8-0.8,1.8-0.8,3.1v0.4H167.7L167.7,115.1z"/>
	<path fill="#333333" d="M176.5,110.4v2.7c0.8-1.2,1.5-2.1,2.1-2.5c0.6-0.4,1.2-0.6,1.7-0.6c0.5,0,0.9,0.1,1.1,0.4
		c0.3,0.3,0.4,0.7,0.4,1.2c0,0.6-0.1,1-0.4,1.3c-0.3,0.3-0.6,0.5-1,0.5c-0.5,0-0.8-0.1-1.2-0.4c-0.3-0.3-0.5-0.5-0.6-0.5
		c-0.1-0.1-0.2-0.1-0.3-0.1c-0.2,0-0.5,0.1-0.7,0.3c-0.3,0.3-0.6,0.7-0.8,1.2c-0.3,0.8-0.4,1.7-0.4,2.7v2.7l0,0.7
		c0,0.5,0,0.8,0.1,0.9c0.1,0.2,0.3,0.4,0.4,0.5c0.2,0.1,0.5,0.2,1,0.2v0.5h-6.5v-0.5c0.5,0,0.9-0.2,1-0.4c0.2-0.2,0.3-0.9,0.3-1.9
		v-6.6c0-0.7,0-1.1-0.1-1.3c-0.1-0.2-0.2-0.4-0.4-0.5c-0.2-0.1-0.4-0.2-0.9-0.2v-0.5H176.5L176.5,110.4z"/>
	<path fill="#333333" d="M187.6,110.4v1.5c0.6-0.7,1.2-1.1,1.8-1.4c0.6-0.3,1.2-0.5,1.8-0.5c0.8,0,1.4,0.2,1.9,0.7
		c0.5,0.4,0.9,1,1,1.6c0.1,0.5,0.2,1.4,0.2,2.8v4.7c0,0.9,0.1,1.5,0.2,1.7c0.2,0.2,0.5,0.4,1,0.4v0.5h-6v-0.5c0.5-0.1,0.8-0.2,1-0.6
		c0.1-0.2,0.2-0.7,0.2-1.6v-5.3c0-1,0-1.6-0.1-1.9c-0.1-0.3-0.2-0.5-0.4-0.6c-0.2-0.1-0.4-0.2-0.6-0.2c-0.7,0-1.4,0.5-2,1.6v6.4
		c0,0.9,0.1,1.5,0.2,1.7c0.2,0.2,0.5,0.4,0.9,0.4v0.5h-6v-0.5c0.5-0.1,0.9-0.2,1.1-0.5c0.1-0.2,0.2-0.7,0.2-1.7V113
		c0-0.9-0.1-1.5-0.3-1.7c-0.2-0.2-0.5-0.4-1-0.4v-0.5H187.6L187.6,110.4z"/>
	<path fill="#333333" d="M201.4,110.4v1.6c0.7-0.7,1.3-1.2,1.8-1.5c0.6-0.3,1.2-0.4,1.8-0.4c0.8,0,1.4,0.2,1.9,0.5
		c0.5,0.4,0.9,0.9,1.2,1.6c0.7-0.8,1.3-1.3,2-1.7c0.6-0.3,1.3-0.5,2-0.5c0.8,0,1.5,0.2,2,0.6c0.5,0.4,0.8,0.9,1,1.4
		c0.2,0.6,0.3,1.5,0.3,2.8v4.9c0,0.9,0.1,1.5,0.2,1.7c0.2,0.2,0.5,0.4,1,0.4v0.5h-6.2v-0.5c0.5,0,0.8-0.2,1.1-0.6
		c0.2-0.2,0.2-0.8,0.2-1.6v-5.1c0-1.1,0-1.7-0.1-2c-0.1-0.3-0.2-0.5-0.4-0.6c-0.2-0.1-0.4-0.2-0.6-0.2c-0.4,0-0.7,0.1-1.1,0.4
		c-0.4,0.3-0.8,0.7-1.1,1.2v6.4c0,0.9,0.1,1.4,0.2,1.6c0.2,0.3,0.6,0.5,1.1,0.5v0.5h-6.2v-0.5c0.3,0,0.6-0.1,0.8-0.2
		c0.2-0.2,0.3-0.3,0.4-0.5c0.1-0.2,0.1-0.7,0.1-1.4v-5.1c0-1.1,0-1.8-0.1-2c-0.1-0.3-0.2-0.5-0.4-0.6c-0.2-0.2-0.4-0.2-0.6-0.2
		c-0.3,0-0.7,0.1-0.9,0.3c-0.4,0.3-0.8,0.7-1.3,1.4v6.4c0,0.8,0.1,1.4,0.2,1.7c0.2,0.3,0.5,0.4,1,0.5v0.5h-6.2v-0.5
		c0.5-0.1,0.9-0.2,1.1-0.5c0.1-0.2,0.2-0.7,0.2-1.7V113c0-0.9-0.1-1.5-0.3-1.7c-0.2-0.2-0.5-0.4-1-0.4v-0.5H201.4L201.4,110.4z"/>
	<path fill-rule="evenodd" clip-rule="evenodd" fill="#333333" d="M227.3,115.9h-6.6c0.1,1.6,0.5,2.8,1.3,3.8
		c0.6,0.7,1.3,1.1,2.1,1.1c0.5,0,1-0.1,1.4-0.4c0.4-0.3,0.9-0.8,1.3-1.5l0.4,0.3c-0.6,1.3-1.4,2.3-2.1,2.8c-0.8,0.5-1.7,0.8-2.7,0.8
		c-1.8,0-3.1-0.7-4-2c-0.7-1.1-1.1-2.5-1.1-4.1c0-2,0.5-3.6,1.6-4.8c1.1-1.2,2.3-1.8,3.8-1.8c1.2,0,2.3,0.5,3.1,1.5
		C226.8,112.5,227.3,114,227.3,115.9L227.3,115.9z M224.2,115.1c0-1.4-0.1-2.3-0.2-2.8c-0.1-0.5-0.4-0.9-0.7-1.2
		c-0.2-0.2-0.4-0.2-0.7-0.2c-0.4,0-0.8,0.2-1.1,0.7c-0.5,0.8-0.8,1.8-0.8,3.1v0.4H224.2L224.2,115.1z"/>
	<path fill="#333333" d="M232.7,110.4v1.5c0.6-0.7,1.2-1.1,1.8-1.4c0.6-0.3,1.2-0.5,1.8-0.5c0.8,0,1.4,0.2,1.9,0.7
		c0.5,0.4,0.9,1,1,1.6c0.1,0.5,0.2,1.4,0.2,2.8v4.7c0,0.9,0.1,1.5,0.2,1.7c0.2,0.2,0.5,0.4,1,0.4v0.5h-6v-0.5c0.5-0.1,0.8-0.2,1-0.6
		c0.1-0.2,0.2-0.7,0.2-1.6v-5.3c0-1,0-1.6-0.1-1.9c-0.1-0.3-0.2-0.5-0.4-0.6c-0.2-0.1-0.4-0.2-0.6-0.2c-0.7,0-1.4,0.5-2,1.6v6.4
		c0,0.9,0.1,1.5,0.2,1.7c0.2,0.2,0.5,0.4,0.9,0.4v0.5h-6v-0.5c0.5-0.1,0.9-0.2,1.1-0.5c0.1-0.2,0.2-0.7,0.2-1.7V113
		c0-0.9-0.1-1.5-0.3-1.7c-0.2-0.2-0.5-0.4-1-0.4v-0.5H232.7L232.7,110.4z"/>
	<path fill="#333333" d="M245.8,106v4.4h2.8v1.3h-2.8v7.4c0,0.7,0,1.1,0.1,1.3c0.1,0.2,0.2,0.4,0.3,0.5c0.2,0.1,0.3,0.2,0.4,0.2
		c0.6,0,1.1-0.4,1.6-1.3l0.4,0.3c-0.7,1.6-1.8,2.5-3.4,2.5c-0.8,0-1.4-0.2-1.9-0.6c-0.5-0.4-0.9-0.9-1-1.4c-0.1-0.3-0.1-1.1-0.1-2.4
		v-6.5h-1.6v-0.4c1.1-0.8,2-1.6,2.7-2.4c0.8-0.8,1.4-1.8,2-2.8H245.8L245.8,106z"/>
	<path fill="#333333" d="M104.5,74.1c-0.1,0.1-0.2,0.3-0.3,0.3"/>
	<path fill="#333333" d="M107.5,50.7c0.3,0,0.6-0.3,0.6-0.6c0-0.3-0.3-0.6-0.6-0.6c-0.3,0-0.6,0.3-0.6,0.6
		C106.9,50.4,107.1,50.7,107.5,50.7L107.5,50.7z"/>
	<path fill="#333333" d="M136.5,24.3L136.5,24.3l-22.5,0v0h0l0,18.2c0,1.8,0.7,3.3,1.8,3.8l8.7,5.2c0.2,0.2,0.5,0.4,0.8,0.4
		c0.3,0,0.5-0.1,0.7-0.3l8.8-5.3c1-0.5,1.8-2,1.8-3.8L136.5,24.3L136.5,24.3L136.5,24.3z M121.4,29.5h-2v-4.7h2V29.5L121.4,29.5z
		 M120,31.2l0.3-0.3l-0.2-0.3l0.4,0l0.2-0.4l0.2,0.4l0.4,0l-0.2,0.3l0.3,0.3l-0.4,0.1v0.4l-0.3-0.3l-0.3,0.3v-0.4L120,31.2L120,31.2
		z M114.6,37v-4.4h2.4V37H114.6L114.6,37z M115,30.5l0.4,0l0.2-0.4l0.2,0.4l0.4,0l-0.2,0.3l0.3,0.3l-0.4,0.1v0.4l-0.3-0.3l-0.3,0.3
		v-0.4l-0.4-0.1l0.3-0.3L115,30.5L115,30.5z M117.6,35l0.4,0l0.2-0.4l0.2,0.4l0.4,0l-0.2,0.3l0.3,0.3l-0.4,0.1v0.4l-0.3-0.3
		l-0.3,0.3v-0.4l-0.4-0.1l0.3-0.3L117.6,35L117.6,35z M119.2,31.5c0-0.1-0.2-0.1-0.2-0.1c-0.2,0-0.3,0.3-0.5,0.4
		c-0.1,0-0.2,0-0.2-0.1c0-0.1,0.3-0.2,0.4-0.3c-1.5,0-1.5,0.7-1.7,0.7c-0.4,0,0.3-0.7,0.5-0.9c-0.3,0-0.5-0.4-0.8-0.6
		c0.2-0.2,0.2-0.1,0.4,0c0-0.2,0.1-0.3,0.5-0.3c0.7,0,0.5,0.6,0.6,0.6c0.1,0,0-0.6,0.4-0.6c0.6,0,1.5,1.7,0.7,1.7
		C119,31.8,119.2,31.5,119.2,31.5L119.2,31.5z M117.5,26.6l0.3-0.3l-0.2-0.3l0.4,0l0.2-0.4l0.2,0.4l0.4,0l-0.2,0.3l0.3,0.3l-0.4,0.1
		v0.4l-0.3-0.3l-0.3,0.3v-0.4L117.5,26.6L117.5,26.6z M116.9,24.9v4.7h-2.4v-4.7H116.9L116.9,24.9z M121.4,48.9l-5.4-3.2
		c-0.9-0.6-1.3-1.7-1.5-3v-5.1h6.9V48.9L121.4,48.9z M119.5,37v-4.4h2V37H119.5L119.5,37z M128.4,49.3l-2.5,1.5h0
		c-0.2,0.1-0.4,0.2-0.7,0.2c-0.3,0-0.5-0.1-0.7-0.2l-2.5-1.5V37.6h6.3V49.3L128.4,49.3z M128.4,37H122V24.9h6.3V37L128.4,37z
		 M135.8,42.7c-0.1,1.3-0.6,2.4-1.5,3l-5.4,3.2V37.6h6.9V42.7L135.8,42.7z M135.8,37H129V24.9h6.9V37L135.8,37z"/>
	<path fill="#333333" d="M121.1,41.7c0-0.1-0.9,0.3-0.6,0.3c0-0.2,0.5-0.7,0.7-0.9c0-0.3-0.4,0-0.8,0.2c1.3-1.8,0.5-1.1-0.3-1
		c1.1-1.2,0.8-1.2,0-0.8c0.7-0.5,0.8-1.2,0.7-1.3c-0.6,0.8-1.2,0.7-1.2,1.5c0,0.5-0.2,1.3-0.4,1.6c-0.3,0.4-0.1-1.4-1-1.4
		c-0.3,0-0.9,0-1.1,0.3c0.2,0,0.4,0.5,0.4,0.6c0,0.2,0.2,0.7-0.1,0.7c-0.3,0-0.6-0.6-0.6-0.9c0-0.3,0-0.2,0-0.7
		c0-0.7-1.2-1.8-1.7-1.8c0,0.5,0.7,0.6,0.7,1.3c-0.3,0-0.7-0.5-0.7-0.2c0,0.3,0.4,0.4,0.4,0.7c0,0.3-0.5-0.1-0.5,0.2
		c0,0.3,0.3,0.2,0.3,0.5c-0.2-0.1-0.4,0-0.4,0.1c0,0.1,0.1,0.2,0.2,0.3c-0.1,0.1-0.1,0.2-0.1,0.6c0,1.4,0.9,2.1,1.6,2.1
		c0.5,0,0.4-0.3,0.5-0.5c0,0.2,0.3-0.1,0.3,0.3c0,0.4-0.5,0.2-0.5,0.6c0,0.5,0.7,0,0.7,0.6c0,0.7-0.1,0.7-0.1,0.9
		c0,0.2,0.8-0.3,0.7-0.3c0.2,0.1,0.2,0.6,0.5,0.6c0.2,0,0.3-0.5,0.4-0.6c-0.1,0,0.7,0.5,0.7,0.3c0-0.7-0.3-0.4-0.3-0.8
		c0-0.4,0.9-0.3,0.8-0.6c-0.1-0.2-0.2-0.1-0.3-0.4c0,0.1-0.7-1.1,0.2-0.5C121,43.9,121.1,41.9,121.1,41.7L121.1,41.7z"/>
	<path fill="#333333" d="M145.1,46.5c0.4,0,0.7-0.3,0.7-0.7c0-0.4-0.3-0.7-0.7-0.7c-0.4,0-0.7,0.3-0.7,0.7
		C144.4,46.2,144.7,46.5,145.1,46.5L145.1,46.5z"/>
	<path fill="#333333" d="M142.1,48.3c0.4,0,0.7-0.3,0.7-0.7c0-0.4-0.3-0.7-0.7-0.7c-0.4,0-0.7,0.3-0.7,0.7
		C141.4,48,141.7,48.3,142.1,48.3L142.1,48.3z"/>
	<path fill="#333333" d="M106.5,52.4c0.4,0,0.7-0.3,0.7-0.7c0-0.4-0.3-0.7-0.7-0.7c-0.4,0-0.7,0.3-0.7,0.7
		C105.7,52.1,106.1,52.4,106.5,52.4L106.5,52.4z"/>
	<path fill="#333333" d="M108.8,52.6c0.4,0,0.7-0.3,0.7-0.7c0-0.4-0.3-0.7-0.7-0.7c-0.4,0-0.7,0.3-0.7,0.7
		C108,52.3,108.4,52.6,108.8,52.6L108.8,52.6z"/>
	<path fill="#333333" d="M172.9,21.5c1.1,1.3,1.3,3.4,0.5,4.9c-0.4,0-0.4-0.6-0.4-0.9c-0.8-1.5-1.4-3.3-0.7-5
		C172.9,20.6,172.7,21.2,172.9,21.5L172.9,21.5z"/>
	<path fill="#333333" d="M78.8,23.3c-0.2,1-0.2,2.3,0,3.1c-0.2,0.2-0.2-0.2-0.4-0.2c-1.5-1.1-0.8-3.3-1.2-4.8
		c0.1-0.1,0.3-0.2,0.4-0.1C78.3,21.8,78.6,22.5,78.8,23.3L78.8,23.3z"/>
	<path fill="#333333" d="M176.3,23.4c0.2,0.4-0.2,0.9-0.5,1.1c-0.4,0.1-0.7-0.1-1-0.4c-0.1-0.4,0.1-0.8,0.5-1
		C175.7,23,176.1,23,176.3,23.4L176.3,23.4z"/>
	<path fill="#333333" d="M76.4,25.1c-0.1,0.4-0.2,0.7-0.5,0.9c-0.2,0-0.6,0-0.7-0.2c-0.2-0.2-0.3-0.6-0.2-0.8
		c0.2-0.3,0.5-0.3,0.7-0.4C76,24.7,76.3,24.8,76.4,25.1L76.4,25.1z"/>
	<path fill="#333333" d="M177.9,25.8c0.1,0.2,0.1,0.4,0,0.6c-0.3,0.4-0.7,0.5-1.1,0.4c-0.3-0.2-0.4-0.4-0.4-0.7
		c0.1-0.3,0.4-0.6,0.7-0.7C177.4,25.4,177.6,25.6,177.9,25.8L177.9,25.8z"/>
	<path fill="#333333" d="M175.6,25.9c0.3,0.2,0.1,0.6,0,0.8c-0.2,0.2-0.5,0.5-0.8,0.4c-0.2-0.2-0.4-0.2-0.5-0.5
		c0-0.4,0.2-0.8,0.6-0.9C175.2,25.6,175.4,25.7,175.6,25.9L175.6,25.9z"/>
	<path fill="#333333" d="M172.8,26.5c0,0.4,0,1-0.5,1.1c-0.5,0.2-0.8-0.2-0.9-0.6c0-0.4,0.2-0.8,0.6-1
		C172.3,26,172.6,26.2,172.8,26.5L172.8,26.5z"/>
	<path fill="#333333" d="M80.7,26.6c0.1,0.4-0.3,0.6-0.5,0.8c-0.3,0.1-0.6-0.2-0.8-0.4c-0.3-0.3,0.1-0.5,0.2-0.8
		C79.9,25.9,80.5,26.2,80.7,26.6L80.7,26.6z"/>
	<path fill="#333333" d="M78.3,26.8c0,0.3-0.2,0.6-0.4,0.8c-0.3,0.1-0.6-0.1-0.8-0.4c-0.2-0.4,0-0.8,0.4-0.9
		C77.9,26.1,78.2,26.5,78.3,26.8L78.3,26.8z"/>
	<path fill="#333333" d="M163.2,26.9c0.4,0.8,0.7,1.8,0.8,2.9c-0.2,0.8,0.1,1.7-0.4,2.3c-0.6-0.2-0.6-0.9-0.9-1.2
		c-0.7-1.4-0.1-3,0.2-4.4C163.1,26.3,163.1,26.7,163.2,26.9L163.2,26.9z"/>
	<path fill="#333333" d="M76.5,27.4c0.1,0.5-0.2,0.7-0.5,1c-0.5,0.1-0.8-0.2-1-0.6c0-0.4,0.2-0.8,0.5-0.9
		C75.9,26.8,76.3,27,76.5,27.4L76.5,27.4z"/>
	<path fill="#333333" d="M169.4,28.6c0.5,1.1,0.6,2.5,0.2,3.8l-0.2,0.2c-0.5-1.1-1.3-2.1-1.6-3.2c0-0.8,0.2-1.6,0.5-2.3
		c0.3-0.2,0.4,0,0.5,0.3C168.9,27.8,169.1,28.3,169.4,28.6L169.4,28.6z"/>
	<path fill="#333333" d="M174.4,27.8c0,0.4-0.2,0.8-0.6,1c-0.4,0.1-0.8,0-0.9-0.5c-0.1-0.4,0.1-0.8,0.4-1
		C173.8,27.1,174.2,27.5,174.4,27.8L174.4,27.8z"/>
	<path fill="#333333" d="M78.4,29.1c0,0.3-0.3,0.7-0.6,0.8c-0.3,0.2-0.5-0.2-0.8-0.3c-0.1-0.3-0.2-0.6,0-0.9
		c0.1-0.2,0.4-0.2,0.6-0.3C77.9,28.5,78.3,28.7,78.4,29.1L78.4,29.1z"/>
	<path fill="#333333" d="M80.1,28.9c0.2,0.4-0.3,0.6-0.4,0.8c-0.5,0.2-0.7-0.2-0.9-0.5c-0.1-0.4,0.2-0.6,0.4-0.9
		C79.7,28.2,79.9,28.5,80.1,28.9L80.1,28.9z"/>
	<path fill="#333333" d="M175.5,28.7c0,0.5-0.8,1-0.9,1.5c-0.4,1.1-1.4,1.9-2.4,2.2c-0.2,0.2-0.6,0.5-0.9,0.5
		c-0.1-0.8,0.6-1.5,1.1-2.2C173.1,29.7,174.3,29.1,175.5,28.7L175.5,28.7z"/>
	<path fill="#333333" d="M77.6,30.4c0.6,0.7,0.9,1.3,1.6,1.9c0,0.2-0.1,0.4-0.3,0.4c-1.9-0.1-3.2-2.1-4.2-3.5
		c0.1-0.4,0.6-0.1,0.9-0.1C76.3,29.6,77.1,29.7,77.6,30.4L77.6,30.4z"/>
	<path fill="#333333" d="M176.1,31c-0.1,1.7-0.9,3.4-2.4,4.3c-0.4,0.2-0.9,0.6-1.3,0.3c0.8-1.7,2.1-3.1,3.5-4.6H176.1L176.1,31z"/>
	<path fill="#333333" d="M168.5,32.1c0.1,0.6-0.2,1-0.7,1.1c-0.4,0-0.7-0.3-0.9-0.6c0-0.4,0.2-0.8,0.6-0.9c0.1-0.1,0.3-0.1,0.5-0.1
		C168.2,31.7,168.3,31.9,168.5,32.1L168.5,32.1z"/>
	<path fill="#333333" d="M75.4,32.5c0.7,0.5,1.4,1.2,2.1,1.9c-0.5,0.4-1.1,0-1.7,0c-1.3-0.5-2.2-1.6-3.6-2c0-0.4,0.6-0.3,0.8-0.4
		C73.9,31.9,74.6,32.3,75.4,32.5L75.4,32.5z"/>
	<path fill="#333333" d="M117.5,20.7c-2.2-0.9-3.7,1.4-5.9,1.1c-0.3,0.2-0.2,0.4-0.4,0.6c-0.1,0.1-0.3,0-0.4,0
		c-0.1-1-0.4-1.8-0.6-2.7c-0.2-0.4-0.1-0.9-0.3-1.3c-1.3-3.4,3.1-0.8,3.9-2.9c0.7-1.7-1.5-1.9-2.1-3.2v-0.5
		c-0.6-0.6-1.3-0.8-1.7-1.7c0.3-1,0.4-2.1,0.1-3c0-0.2-0.2-0.6-0.5-0.4c-0.7,1-1.3,1.9-2,2.9c-0.7-0.6-1.5-1.3-2.3-1.7
		c-0.6-0.1-1.1-0.7-1.8-0.4c-0.1,0.2,0,0.4,0.1,0.6c0,1.5,0.8,2.8,1.9,3.9l0.1,0.6c-0.7,1.6-0.5,3.5-0.7,5.2
		c-1.8,4.5-4.6,8.9-8.5,12c-2.2,2.5-4.9,5-5.3,8.5c-0.1,0.6,0.1,1.2-0.4,1.6c-1.3-0.5-2.6-1.1-3.7-1.9c-1.8-1.3-4.4-1.1-5.6-3.4
		c-0.5-0.9,0.1-1.8,0.6-2.5c1.3-1.3,1.1-3.5,0.4-5.1c-0.2,0-0.2,0.2-0.3,0.2c-0.1,2.3-2,4-1.3,6.5c0.2,0.8,0.6,1.2,0.7,1.9
		c-0.3-0.1-0.7-0.1-0.9-0.2c-0.9-0.1-1.7-0.5-2.6-0.4c-1.8,0.8-4.3-0.2-5.7,1.5c-0.2,0-0.6,0.1-0.5,0.4c0.9,0,1.7,0.2,2.6,0.2
		c1.4,0.2,2.3-0.9,3.2-1.4H78c0.4-0.4,1.1-0.2,1.6-0.2c2.5,0.3,4.4,1.5,6.4,2.7v0.2c-0.8,0.4-1.7,0.6-2.5,1
		c-0.9,0.7-1.9,1.5-2.2,2.7c-0.6,1,0.2,1.9,0.6,2.7c0,0.4,0.1,0.9,0.4,1c1.3-1.3,0.1-3,0.3-4.6c0.3-1.2,1.4-1.7,2.6-2.1
		c2.2-1,3.9,0.9,5.7,1.9c0,1.8,0.2,3.6-0.2,5.3c-0.6,0.2-1.3,0.3-1.8,0.3c-3.1,0.2-5.5,1.9-8.3,2.9c-1.3,0.4-2.8,0.4-4,0.9
		c1,0.3,2-0.1,3-0.1c3.9-0.6,6.8-3.5,11-3l0.1,0.1c-0.5,1-1.1,1.8-1.8,2.6c-0.1-0.4-0.2-0.8-0.6-1c-0.3-0.2-0.7,0-0.9,0.3
		c-0.1,0.2-0.1,0.4,0,0.6c0.2,0.4,0.5,0.4,0.9,0.6c-0.1,0.4-0.5,0.5-0.7,0.8c-1.1,1.9-3.3,1.1-4.6,2.4c-0.2,0.3-0.9,0.4-0.6,0.9
		c1.5,0.2,3-0.2,4.1-1c1.5-1.6,3-3.2,4.4-4.7c0.2,1.3-0.1,2.6-0.9,3.6c-0.4-0.2-0.6-0.5-1.1-0.6c-0.4,0.1-0.7,0.5-0.7,0.8
		c0.2,0.3,0.3,0.6,0.6,0.8c-1.3,1-3,1-4.6,1.5c-2.9,0.4-5.7,0.6-8.6,0.6c-1.4-0.1-3,0.4-4.2,0c-1.5,0.3-3.1-0.2-4.3,0.6
		c-0.2,0.2,0,0.4,0,0.6c1.8,1.2,4.3,0.2,6.3,0.6h15.5c1.1,0,2.3-0.1,3.2-0.6c2-1.1,3.1-3.2,4.1-5.2c0.4-0.7,0.7-1.5,0.8-2.4
		c0.4-1.3,1.6-2.3,2.9-2.4c0.2,2.1-0.2,4.1-0.7,6c-0.2,1.3-1.1,2.5-0.5,3.8c0.1,0.6,0.8,0.6,1.3,0.7c4.8-0.1,9.5-0.3,14.6,0.1
		c0.9,0.2,1.7,0.4,2.7,0.4c0.1-0.1,0.4-0.2,0.2-0.4c-0.1-0.4-0.4-1-0.9-1.1c-0.1-0.2-0.4-0.2-0.5-0.3c-2.5-1.4-5.5-0.7-8.5-0.6
		c-1.5,0.2-3.1,0.4-4.4-0.4c-0.6-0.7-0.2-3-0.2-3c0-0.9,2.2-7.1,2.4-7.6c0.1-0.6,0.3-1.1,0.2-1.8c0.3-0.8,0.2-1.8,0.2-2.7
		c0.2-1.3,0.8-2.5,1.2-3.7c0.2-0.6,0.4-1.2,0.7-1.8c0.2-0.8,0.3-1.5,0.8-2.1c1.3,0.8,2.5,0.8,3.2,2.2l0.5,3.3c0,0.2,0.2,0.6,0.4,0.4
		c1-0.7,0.7-2.2,0.7-3.2c0.2-1.2-0.6-1.8-1-2.9c-0.3-0.2-0.7-1.1-0.7-1.1c-0.2-0.9-2.1-1.5-1.6-2.5c0.2-0.9,0.5-1.7,1.3-2.3
		c0.1,0.1,0.2,0.2,0.2,0.3l0.5-0.3l0-3.3c1.3,0,3.2,0.2,4.5,0.2c0.4,0.1,0.6,0.4,1,0.4l0.3-0.4l3.2-0.6
		C119.6,22.3,118.8,20.7,117.5,20.7L117.5,20.7z"/>
	<path fill="#333333" d="M121,22.2c0.1,0,0.2,0,0.3-0.1L121,22.2L121,22.2z"/>
	<path fill="#333333" d="M86.7,33.2c0,0.5-0.2,0.8-0.6,0.9c-0.3-0.1-0.5-0.2-0.7-0.5c-0.2-0.4,0.2-0.8,0.5-0.9
		C86.3,32.8,86.7,32.8,86.7,33.2L86.7,33.2z"/>
	<path fill="#333333" d="M84.2,33.2c0.2,0.2,0.3,0.6,0.2,0.9c-0.3,0.2-0.7,0.4-0.9,0.1c-0.2-0.2-0.5-0.5-0.3-0.8
		C83.4,33.1,83.9,32.9,84.2,33.2L84.2,33.2z"/>
	<path fill="#333333" d="M138.9,33.6C138.9,33.6,139,33.7,138.9,33.6"/>
	<path fill="#333333" d="M168.9,34.3c0.2,0.4-0.2,0.8-0.5,0.9c-0.4-0.1-0.9-0.2-0.9-0.7c0-0.3,0.3-0.5,0.6-0.6
		C168.4,33.8,168.7,34.1,168.9,34.3L168.9,34.3z"/>
	<path fill="#333333" d="M171,34.2c0.1,0.2,0.4,0.5,0.1,0.7c-0.2,0.1-0.3,0.2-0.4,0.3c-0.4,0.1-0.8-0.1-0.9-0.5
		c-0.1-0.4,0.3-0.6,0.6-0.8C170.6,33.9,170.8,34.1,171,34.2L171,34.2z"/>
	<path fill="#333333" d="M74.3,34.7c-0.2,0.5-0.5,0.7-1.1,0.5c-0.1-0.1-0.2-0.3-0.3-0.5c0-0.3,0.1-0.6,0.4-0.7
		C73.8,34.1,74.2,34.3,74.3,34.7L74.3,34.7z"/>
	<path fill="#333333" d="M87.6,35.4c0,0.3-0.4,0.6-0.7,0.8c-0.4,0-0.7-0.3-0.9-0.6c0-0.3,0.2-0.7,0.5-0.8
		C86.9,34.6,87.4,34.9,87.6,35.4L87.6,35.4z"/>
	<path fill="#333333" d="M85.2,35.1c0.1,0.1,0.2,0.4,0.1,0.6c-0.2,0.2-0.6,0.6-1,0.3c-0.2-0.2-0.5-0.4-0.4-0.8
		c0.2-0.2,0.4-0.4,0.6-0.5C84.9,34.7,85,34.9,85.2,35.1L85.2,35.1z"/>
	<path fill="#333333" d="M177,35.6c0,0.3-0.3,0.6-0.5,0.8c-0.3,0.1-0.7,0-0.9-0.2c-0.2-0.1-0.2-0.4-0.2-0.6c0.2-0.3,0.5-0.4,0.7-0.5
		C176.6,35.1,176.8,35.3,177,35.6L177,35.6z"/>
	<path fill="#333333" d="M179.5,35.9c-0.1,0.4-0.4,0.7-0.7,0.7c-0.2,0-0.7-0.1-0.6-0.5c0-0.3,0.2-0.6,0.4-0.6
		C178.9,35.3,179.4,35.5,179.5,35.9L179.5,35.9z"/>
	<path fill="#333333" d="M78.8,36.5c0.1,0.5-0.1,0.8-0.5,0.9c-0.3,0.2-0.6,0-0.7-0.2c-0.2-0.2-0.4-0.5-0.2-0.8
		c0.1-0.4,0.4-0.3,0.7-0.4C78.4,36,78.6,36.2,78.8,36.5L78.8,36.5z"/>
	<path fill="#333333" d="M80.7,36.8c0.1,0.3-0.2,0.4-0.3,0.7c-0.2,0.1-0.5,0.2-0.7,0.1c-0.3-0.2-0.6-0.6-0.3-0.9
		C79.7,36,80.5,36.4,80.7,36.8L80.7,36.8z"/>
	<path fill="#333333" d="M174.7,36.6c0,0.4-0.3,0.7-0.5,0.9c-0.4,0.1-0.7-0.2-0.8-0.5c0-0.3,0.2-0.6,0.4-0.8
		C174.1,36.3,174.5,36.3,174.7,36.6L174.7,36.6z"/>
	<path fill="#333333" d="M177.9,37.3c-0.1,0.4,0,0.8-0.4,1c-0.3,0.1-0.7,0-0.9-0.2c-0.2-0.2-0.3-0.6-0.2-0.8
		c0.2-0.3,0.6-0.6,0.9-0.5C177.6,36.9,177.7,37.1,177.9,37.3L177.9,37.3z"/>
	<path fill="#333333" d="M77.3,38.1c0.2,0.3-0.2,0.4-0.3,0.6c-0.3,0.2-0.6,0-0.8-0.1c-0.3-0.2-0.2-0.6-0.1-0.8
		C76.4,37.1,77.1,37.6,77.3,38.1L77.3,38.1z"/>
	<path fill="#333333" d="M175.4,38.8c0.2,0,0.1,0.3,0,0.4c-0.9,0.5-2.4,0.6-3.2-0.2c-0.5-0.4-1.1-0.6-1.6-0.9
		c0.2-0.5,0.9-0.5,1.4-0.6C173.3,37.7,174.2,38.8,175.4,38.8L175.4,38.8z"/>
	<path fill="#333333" d="M79.2,38.5c0.1,0.3-0.2,0.4-0.2,0.7c-0.2,0.2-0.5,0.2-0.7,0.1c-0.4-0.2-0.5-0.7-0.3-1
		C78.4,37.8,79,38.1,79.2,38.5L79.2,38.5z"/>
	<path fill="#333333" d="M82.7,38.7c0.2,0.4-0.1,0.7-0.4,0.9c-0.3,0.2-0.5-0.1-0.7-0.1c-0.2-0.3-0.6-0.6-0.2-0.9
		C81.7,38,82.4,38.3,82.7,38.7L82.7,38.7z"/>
	<path fill="#333333" d="M128.1,40.4c-0.1,0.8-1.4-0.1-1.2,0.9c0.2,0.8,0.3,1.7,0.8,2.2c0.4,0.5,0.2,1.4,0.2,2
		c-0.3,0.6-0.9,1-1.5,1.3c-1.1-0.1-2.8,0.6-3.3-0.8c-0.2-0.6-0.6-1.2-0.6-1.9c0.1-0.1,0.3-0.1,0.4-0.2c0-0.3-0.3-0.4-0.3-0.7
		c1.3-0.2-0.5-1.4,0.6-1.4c0.9,0.9,2.4,0.6,3.1,1.7c0.2,0.2,0.3,0.4,0.6,0.5c-0.2-0.9-0.6-1.9-0.7-2.9c-0.1-0.5,0.1-1,0.4-1.3
		C127.2,39.2,127.7,40,128.1,40.4L128.1,40.4z"/>
	<path fill="#333333" d="M86.1,40.2c0.1,0.4-0.2,0.6-0.4,0.8c-0.4,0.2-0.5-0.2-0.7-0.4c-0.1-0.4,0.2-0.6,0.4-0.8
		C85.6,39.8,86,39.9,86.1,40.2L86.1,40.2z"/>
	<path fill="#333333" d="M110.4,40.6c0.5,1.5,0.3,3.1-0.5,4.4c0,0.3,0.1,0.8-0.4,0.8c-1.1-1.5-0.3-3.5,0.2-5.1
		C109.8,40.3,110.3,40.2,110.4,40.6L110.4,40.6z"/>
	<path fill="#333333" d="M144,41.3c0.5,1.1,0.6,2.6,0.1,3.7l-0.3,0.3c-0.4-0.9-0.8-1.8-0.9-2.8c0.2-0.7,0.4-1.3,0.5-2.1
		C143.9,40.3,143.9,41,144,41.3L144,41.3z"/>
	<path fill="#333333" d="M89.2,41.7c-0.2,0.5-0.9,0.6-1.3,0.9c-0.9,0.7-2.3,0.9-3.5,0.7c1-1.4,2.6-2.3,4.5-1.9
		C88.9,41.6,89.1,41.5,89.2,41.7L89.2,41.7z"/>
	<path fill="#333333" d="M73,43.2c1.5,1,1.8,2.5,2.7,3.9c0.1,0.2,0.5,0.2,0.4,0.5c-0.3,0.2-0.6-0.2-1.1-0.2
		c-1.5-0.7-2.4-2.3-2.4-4.1C72.6,43.2,72.9,43.2,73,43.2L73,43.2z"/>
	<path fill="#333333" d="M142.5,44.4c0,0.4,0,0.8-0.4,0.9c-0.4,0.1-0.8-0.1-0.9-0.5c-0.1-0.3,0.1-0.4,0.2-0.6
		C141.8,43.9,142.3,44,142.5,44.4L142.5,44.4z"/>
	<path fill="#333333" d="M159.1,46.5c0-0.8,0.2-1.5,0.3-2.2c0.1-0.2,0.2-0.5,0.2-0.8c0.9-1.3,2.9-0.9,4.4-0.8c0.6,0.3,1.3,0.3,2,0.4
		c0.3-0.2,0.7-0.2,1-0.2c1.3-0.7,0.4-2.1,0.5-3.3l-0.5-1.2c-0.1-0.2-0.2-0.5-0.3-0.8c-0.2-0.3-0.4-0.8-0.6-1.1
		c-0.7-1.7-2-2.7-3.1-4.1c-2-2.6-5.2-4.1-8.3-5.1c-3.1-1.1-6.3,0.3-9,1.3c-0.9-0.2-1.3-0.9-1.5-1.7c-0.2-1.5,0.2-3,0.7-4.2
		c0.1-1,0.8-1.7,1.1-2.7c0.7-2.2,1.5-4.4,1.6-6.8c0.1-1.5-1-2.5-2.1-3.1c-0.7-0.2-1.6-0.2-2.2,0.4c-0.5,1.1-1.6,1.8-2.6,2.3
		c-0.1,0.7,0.7,0.2,1,0.5c0.9,0.2,1.8-0.1,2.6,0.4c0.1,1.6-0.8,2.9-1.7,4.1c-1.3,2-2.8,4-3.6,6.2l-0.2-0.2l0.2,9.7
		c1.3,2.1,2.8,4.5,5.2,5.3c1.3,1,2.8,2.3,4.5,1.3c0.9-0.3,1,1,1.4,1.5c0.5,1.5-0.6,2.5-0.7,3.8l-1,2.2c-1.2,2.3-2.2,4.8-4,6.7
		c-0.6,0-0.9,0.6-1.5,0.7c-0.3,0.4-0.9,0.1-1.3,0.3c-1.2,0.5-3,0.2-3.8,1.3c0.1,0.1,0.2,0.2,0.3,0.2c2.4,0,5.1,0.2,7.6,0.1
		c0.3-0.1,0.6-0.4,0.6-0.8c-0.4-0.7,0.1-1.3,0.4-1.8c0.2-1,0.8-1.5,1.1-2.5c0.8-1.6,1.8-3.2,2.7-4.8l1.2-2c0.3-0.7,0.7-1.5,1.2-2.2
		c0.3-0.3,0.5-0.7,0.7-1.1c0-0.4-0.2-0.6-0.4-0.8c0.3-0.3,0.7-0.2,1.1-0.3c1,0.6,2,1.5,2.2,2.6l0.4,1L157,45l-0.1,1.3l0.2,1.2
		c0.2,1.9-0.2,3.8-0.4,5.7c-0.7,2.3-3.3,2.1-5.2,2.6c-0.5,0.3-1.4,0.2-1.4,1c2.3,0.5,5,0.2,7.4,0.2c0.4-0.2,0.5-0.5,0.7-0.9
		c0.1-0.5,0.6-1,0.4-1.5c-0.4-0.6,0-1.4-0.2-2.2c0.1-0.2,0.1-0.5,0-0.8c0.3-1.1,0.2-2.5,0.5-3.6L159.1,46.5L159.1,46.5z"/>
	<path fill="#333333" d="M178.5,45c-1.3,1.8-2.6,3.8-4.8,4.4c-0.2,0-0.3,0.1-0.4-0.1c1.3-1.4,2-3.6,4.1-4.2
		C177.7,45,178.1,44.8,178.5,45L178.5,45z"/>
	<path fill="#333333" d="M71.1,46.9c-0.2,0.2,0,0.5-0.4,0.6c-0.3,0.2-0.7,0-0.8-0.4c-0.2-0.4,0.2-0.8,0.5-0.9
		C70.7,46.4,71,46.5,71.1,46.9L71.1,46.9z"/>
	<path fill="#333333" d="M82.4,47.4c0.1,0.4-0.3,0.4-0.5,0.4c-1.7,0.6-3.3,0-4.5-1.1c0-0.2,0-0.3,0.2-0.4
		C79.2,46.8,81.1,46.5,82.4,47.4L82.4,47.4z"/>
	<path fill="#333333" d="M73.3,46.9c0.1,0.2,0.1,0.4,0.1,0.6c-0.2,0.4-0.6,0.4-1,0.4c-0.2-0.1-0.4-0.3-0.5-0.5
		c0-0.4,0.4-0.6,0.7-0.8C72.8,46.7,73.1,46.7,73.3,46.9L73.3,46.9z"/>
	<path fill="#333333" d="M110.1,47.1c0.1,0.4-0.2,0.6-0.5,0.8c-0.4,0.1-0.7-0.1-0.8-0.3c-0.1-0.3,0-0.7,0.3-0.8
		C109.4,46.7,110,46.8,110.1,47.1L110.1,47.1z"/>
	<path fill="#333333" d="M179.9,47.3c0.1,0.4-0.2,0.6-0.5,0.8c-0.2,0.1-0.5,0-0.7-0.1c0-0.2-0.3-0.4-0.2-0.6
		c0.2-0.4,0.5-0.5,0.9-0.5C179.6,47,179.8,47.1,179.9,47.3L179.9,47.3z"/>
	<path fill="#333333" d="M182.5,47.1c0.2,0.4,0,0.6-0.2,0.9c-0.2,0.3-0.5,0.4-0.7,0.2c-0.2-0.2-0.6-0.4-0.6-0.7
		c0-0.3,0.4-0.6,0.6-0.7C182.1,46.7,182.2,47.1,182.5,47.1L182.5,47.1z"/>
	<path fill="#333333" d="M69.4,48.3c0,0.3-0.2,0.4-0.3,0.7c-0.2,0.1-0.4,0.2-0.6,0.2c-0.3-0.1-0.5-0.4-0.6-0.6
		c0.1-0.4,0.3-0.7,0.7-0.8C69,47.8,69.3,47.9,69.4,48.3L69.4,48.3z"/>
	<path fill="#333333" d="M152.3,48.3c0.1,0.2,0,0.4,0,0.5c-0.2,0.3-0.5,0.6-0.9,0.4c-0.2-0.2-0.5-0.5-0.4-0.8
		C151.3,47.9,151.9,47.8,152.3,48.3L152.3,48.3z"/>
	<path fill="#333333" d="M75.8,48.9c-0.1,0.3-0.2,0.6-0.5,0.6c-0.4,0-0.5-0.3-0.7-0.4c0-0.4,0-0.7,0.3-0.9
		C75.3,48,75.8,48.4,75.8,48.9L75.8,48.9z"/>
	<path fill="#333333" d="M72,48.9c0.1,0.4-0.2,0.7-0.4,0.9c-0.5,0.2-0.9-0.2-1.1-0.6c0-0.4,0.3-0.8,0.7-0.9
		C71.6,48.4,71.8,48.8,72,48.9L72,48.9z"/>
	<path fill="#333333" d="M154.9,48.9c0.1,0.4,0,0.8-0.4,1c-0.5,0.2-0.9-0.2-1.1-0.6c0.2-0.3,0.2-0.8,0.7-0.8
		C154.4,48.4,154.7,48.6,154.9,48.9L154.9,48.9z"/>
	<path fill="#333333" d="M73.8,49c0.1,0.3-0.1,0.4-0.2,0.6c-0.2,0-0.3,0.2-0.5,0.2c-0.2-0.2-0.5-0.3-0.5-0.6c0-0.4,0.2-0.6,0.5-0.8
		C73.5,48.4,73.7,48.7,73.8,49L73.8,49z"/>
	<path fill="#333333" d="M177.8,49.3c-0.1,0.3-0.4,0.5-0.7,0.6c-0.3,0.1-0.5-0.2-0.7-0.3c-0.2-0.2-0.1-0.5,0-0.7
		C176.7,48.3,177.8,48.6,177.8,49.3L177.8,49.3z"/>
	<path fill="#333333" d="M180.8,49.5c-0.1,0.4-0.5,0.6-0.9,0.7c-0.4-0.2-0.7-0.4-0.5-0.9c0.2-0.2,0.2-0.3,0.5-0.4
		C180.3,48.8,180.7,49.1,180.8,49.5L180.8,49.5z"/>
	<path fill="#333333" d="M162.1,49.8c0.2,0.5-0.3,0.7-0.6,0.9c-0.3,0-0.5-0.2-0.7-0.3c-0.1-0.4,0.1-0.8,0.6-1
		C161.7,49.3,161.9,49.5,162.1,49.8L162.1,49.8z"/>
	<path fill="#333333" d="M151.3,50.3c0.2,0.1,0.1,0.4,0.1,0.5c-0.2,0.2-0.5,0.6-0.9,0.3c-0.3-0.2-0.5-0.4-0.4-0.8
		C150.3,49.9,151.1,49.8,151.3,50.3L151.3,50.3z"/>
	<path fill="#333333" d="M153.5,50.5c0,0.3,0,0.5-0.3,0.6c-0.3,0.3-0.6,0-0.9-0.1c-0.1-0.2-0.2-0.4,0-0.6c0.1-0.2,0.3-0.3,0.5-0.3
		C153,50.2,153.4,50.2,153.5,50.5L153.5,50.5z"/>
	<path fill="#333333" d="M86.7,50.6c0.2,0.2,0,0.5-0.1,0.8c-0.2,0.2-0.6,0.4-1,0.2c-0.4-0.2-0.4-0.7-0.3-1c0.2-0.1,0.2-0.4,0.5-0.4
		C86.3,50.2,86.5,50.4,86.7,50.6L86.7,50.6z"/>
	<path fill="#333333" d="M166.3,50.7c0.1,0.4-0.3,0.6-0.6,0.6c-0.5,0.2-0.7-0.2-0.9-0.5c0-0.2,0.2-0.4,0.3-0.6
		C165.7,50,166,50.4,166.3,50.7L166.3,50.7z"/>
	<path fill="#333333" d="M164.2,50.7c0.2,0.4-0.3,0.6-0.4,0.8c-0.3,0.1-0.6,0.1-0.9-0.2c-0.2-0.1-0.2-0.4-0.2-0.6
		c0.2-0.2,0.4-0.4,0.6-0.5C163.7,50.3,164,50.5,164.2,50.7L164.2,50.7z"/>
	<path fill="#333333" d="M181.9,51.2c0.1,0.6-0.6,0.3-0.9,0.4c-1.7,1-3.8,0.2-5.3-0.4c0.1-0.5,0.7-0.3,1-0.5
		c1.7-1.1,3.4,0.2,5.1,0.3L181.9,51.2L181.9,51.2z"/>
	<path fill="#333333" d="M74.3,50.7L74.1,51c-1.5,0.9-3.3,1.5-5.1,0.9l-0.2-0.2c1.5-1.1,3.4-1.3,5.3-1.1L74.3,50.7L74.3,50.7z"/>
	<path fill="#333333" d="M170.3,51c0,0.3-0.2,0.6-0.4,0.8c-0.4,0.1-0.9,0-1-0.4c-0.1-0.3,0.2-0.6,0.5-0.8
		C169.7,50.6,170.2,50.6,170.3,51L170.3,51z"/>
	<path fill="#333333" d="M81.3,51.2c-0.2,0.3-0.1,0.6-0.5,0.8c-0.4,0.2-0.9-0.2-1-0.5c-0.1-0.4,0.2-0.6,0.4-0.8
		C80.7,50.5,81.1,50.8,81.3,51.2L81.3,51.2z"/>
	<path fill="#333333" d="M78.5,51.4c0.1,0.3-0.1,0.4-0.2,0.6c-0.2,0.2-0.6,0.2-0.8,0.1c-0.3-0.2-0.6-0.5-0.4-1
		c0.2-0.2,0.4-0.3,0.6-0.4C78.1,50.8,78.4,51,78.5,51.4L78.5,51.4z"/>
	<path fill="#333333" d="M173.1,52.3c0,0.4-0.3,0.6-0.6,0.7c-0.3,0-0.6-0.2-0.7-0.4c-0.1-0.2-0.1-0.6,0.2-0.8
		c0.1-0.1,0.4-0.1,0.5-0.2C172.7,51.7,173,52,173.1,52.3L173.1,52.3z"/>
	<path fill="#333333" d="M75.6,51.8c0.1,0.3-0.2,0.4-0.2,0.7c-0.1,0.7-0.6,1.1-0.9,1.7c-0.7,0.9-1.8,0.9-2.9,1.2l-0.2-0.3
		c1.1-1.5,2.4-2.6,4-3.3L75.6,51.8L75.6,51.8z"/>
	<path fill="#333333" d="M171.1,52.7c0.1,0.5-0.3,0.6-0.6,0.8c-0.4,0-0.6-0.2-0.8-0.5c-0.1-0.4,0.3-0.6,0.5-0.8
		C170.6,52.1,171,52.4,171.1,52.7L171.1,52.7z"/>
	<path fill="#333333" d="M80.1,52.7c0,0.1,0,0.2,0.1,0.2c0,0.4-0.4,0.6-0.6,0.8c-0.4,0-0.6-0.1-0.9-0.4c-0.2-0.4,0-0.8,0.4-0.9
		C79.5,52.3,80,52.4,80.1,52.7L80.1,52.7z"/>
	<path fill="#333333" d="M178.3,53.9c0.4,0,0.5-0.5,0.9-0.6c0.4-0.1,0.7,0.2,0.9,0.4c0.2,0.5-0.2,0.7-0.5,0.9
		c-0.3,0.2-0.9-0.2-0.8,0.3c0.3,0.2,0.5,0.5,0.6,0.8c-0.1,0.2-0.4,0.1-0.5,0c-1.1-0.5-2.4-1.3-2.8-2.5c-0.2-0.4-0.9-0.6-0.5-1
		C176.8,52.3,177.7,53.2,178.3,53.9L178.3,53.9z"/>
	<path fill="#333333" d="M182.1,52.7c0.2,0.2,0.1,0.6,0,0.8c-0.2,0.4-0.8,0.2-1.1,0.2c-0.2-0.2-0.4-0.4-0.3-0.7
		c0.2-0.2,0.3-0.4,0.6-0.5C181.6,52.3,181.8,52.5,182.1,52.7L182.1,52.7z"/>
	<path fill="#333333" d="M167.8,54.8c0.4,0.4,0.7,1.1,0.9,1.6c-0.1,0.1-0.3,0.1-0.4,0.1c-1.3-0.8-3.1-1.6-3.6-3.2
		c-0.1-0.2-0.4-0.4-0.4-0.6c1-0.2,2,0.6,2.7,1.1C167.4,54.2,167.7,54.4,167.8,54.8L167.8,54.8z"/>
	<path fill="#333333" d="M77.9,53.3c0.2,0.4-0.2,0.6-0.4,0.8c-0.4,0.1-0.7-0.1-0.9-0.3c-0.3-0.4,0.2-0.8,0.6-1
		C77.5,52.8,77.7,53.1,77.9,53.3L77.9,53.3z"/>
	<path fill="#333333" d="M172.8,54.2c0,0.2-0.3,0.4-0.4,0.6c-0.3,0-0.6,0.2-0.9-0.1c-0.1-0.2-0.3-0.5,0-0.7
		C171.8,53.4,172.5,53.8,172.8,54.2L172.8,54.2z"/>
	<path fill="#333333" d="M182.5,54.8c0.1,0.5-0.2,0.8-0.6,1c-0.4,0.1-0.7-0.2-0.9-0.4c-0.2-0.2,0-0.5,0-0.8c0.3-0.2,0.6-0.4,1-0.3
		C182.2,54.5,182.4,54.6,182.5,54.8L182.5,54.8z"/>
	<path fill="#333333" d="M155.3,60.2c0,0.5-0.9,0.4-1.2,0.7c-1.2,0.6-2.7,0.6-4.1,0.6v-0.2C151.4,60.1,153.4,59.7,155.3,60.2
		L155.3,60.2z"/>
	<path fill="#333333" d="M98,61.9c0,0.4-0.2,0.6-0.6,0.7c-0.3,0-0.6-0.2-0.7-0.4c-0.2-0.5,0.2-0.7,0.5-0.9
		C97.6,61.4,97.9,61.7,98,61.9L98,61.9z"/>
	<path fill="#333333" d="M154.7,62.4c-0.1,0.4-0.2,0.8-0.6,0.9c-0.4,0.1-0.6-0.1-0.9-0.3c-0.2-0.2-0.1-0.4-0.1-0.6
		C153.4,61.7,154.4,61.7,154.7,62.4L154.7,62.4z"/>
	<path fill="#333333" d="M162.5,62.5c-1,0.6-2.1,1.4-3.4,1.4l-2.1,0l-0.2-0.2c1.3-1.6,3.7-1.6,5.7-1.4V62.5L162.5,62.5z"/>
	<path fill="#333333" d="M87.2,63.5c0,0.4-0.2,0.6-0.5,0.8c-0.4,0.1-0.7-0.1-0.8-0.4c-0.2-0.4,0-0.7,0.3-0.9
		C86.6,62.7,87,63.2,87.2,63.5L87.2,63.5z"/>
	<path fill="#333333" d="M89.1,63.9c0.1,0.2-0.1,0.3-0.2,0.5c-0.2,0.1-0.5,0.2-0.7,0C88,64.2,87.9,64,88,63.7
		c0.1-0.2,0.4-0.2,0.5-0.4C88.7,63.5,89,63.6,89.1,63.9L89.1,63.9z"/>
	<path fill="#333333" d="M74.1,67.9c-0.4,0.5-1-0.1-1.5-0.4c-1.4-0.8-1.3-2.3-2.7-3.2c0.2-0.5,0.5,0,0.8,0c0.2,0.2,0.5,0.3,0.8,0.4
		C72.9,65.4,73.2,66.7,74.1,67.9L74.1,67.9z"/>
	<path fill="#333333" d="M188.7,52.5c-0.6-1.1-1.7-1.6-3-1.6c-1,0.1-1.8,0.8-2.2,1.6c-0.2,0.9,0.1,1.7,0.7,2.2
		c0.3,0.1,0.6,0.1,0.8-0.2c0.2-0.5-0.4-0.5-0.4-0.9c-0.2-0.6,0-1,0.4-1.4c0.4-0.4,1.1-0.2,1.5-0.2c0.5,0.3,0.9,0.6,1.2,1.1
		c0.2,0.7,0.2,1.4,0,2.1c-0.4,1-1.4,1.8-2.4,2c-3.3,0.5-39.1,0.3-39.1,0.3c-4.2,0.4-9-0.8-12.6,1.4c-1.7,0.8-2.5,2.6-2.9,4.2
		c-1.1,1-2.2,2.1-3.1,3.1l-0.1-0.1c0.2-1,0.6-1.8,0.8-2.7c0.6-0.8,0.6-1.9,1-2.7c1.5-2.4,2.9-4.9,5.2-6.6c1-1.3,2.7-1.1,4.2-1.1
		c1.6,0.8,3.5,1,5.5,0.8c0.1-0.1,0.1-0.2,0.1-0.3c-0.6-0.5-1.5-0.7-2.1-1.2c-1.6-0.8-3.1,0.2-4.7,0.1c-0.1-0.1-0.2-0.1-0.1-0.2
		c1.5-1.1,3.2-1.9,4.9-2.6c1.4-0.8,2.8-1.1,4.3-1.7c0.6,0,1.1-0.5,1.7-0.2l2.1-0.6c0.1,0,0.2,0.2,0.3,0.1c1.8-0.6,4,0,6-0.1l0.3,0.2
		l1.9,0.5c0.7,0.1,1,0.9,1.8,1c0.4-0.6-0.4-0.8-0.6-1.1c0.9-0.2,1.8,0,2.6,0.4l-0.4,0.4c-0.2,0.4,0.1,0.8,0.5,0.9
		c0.3,0.1,0.5-0.1,0.7-0.2c0.5-0.4,0-0.7,0.1-1c2.9,0.5,5.7,1.2,8.4,2.4c0.7,0.2,1.5,0.8,2.3,0.8c-0.8-0.8-2-1.1-3-1.6
		c-0.7-0.4-1.6-0.4-2.1-1c0.1-0.2,0.4-0.1,0.5-0.3c1.3-0.2,2.5-1.1,3.4-2.2c0.1-0.2,0.5-0.2,0.5-0.5c-0.4-0.4-0.9,0.1-1.4,0.1
		c-1.7,0.3-2.4,2.3-4,2.6c-2-0.5-4.1-1-6.1-1.5c-1-0.2-2-0.2-2.9-0.6l-2.2-0.2h-4c0-0.1-0.2-0.1-0.1-0.2c1.4-0.4,2.6-1.2,4.1-1.5
		l10.5-4.8c1.1-1,2.1-2.1,3-3.2c0-0.3-0.2-0.6-0.4-0.8c-0.3-0.1-0.6-0.1-0.8,0.2c-0.5,0.4,0,0.8,0,1.2c-0.5,0.6-1.2,1.2-1.8,1.5
		c-0.2,0-10.9,4.9-10.9,4.9c-1.6,0.7-3.1,1.4-4.8,1.8l-2.3,0.4c-0.2,0.5-0.5,0.8-1,0.9c-0.6,0.1-1.1,0.5-1.8,0.5
		c-5.1,2-10.4,4.1-14.5,8.1c0.2-0.5,0.4-1.1,0.4-1.7c-0.1-0.6,0-1.3-0.4-1.7c-0.1-0.2-0.4-0.9-0.3-1.1l-0.6,0.4
		c-0.4,0.9-0.7,2.5-0.3,3.4c0.1,0.7,0.7,1.5,0.2,2.2c-1.9,2.3-3,5.1-4.2,7.7c-0.5-0.1-0.7-0.5-0.9-1c1.3-1.7,2.4-3.6,2.8-5.8
		c0.3-0.2,0.1-0.7,0.4-1c-0.1-0.6,0.4-1.3,0-1.8c0.3-0.9-1.2-1.7-0.3-2.2l-0.7,0.4c-1.7,2.2,0.9,5.5-1,7.7v0.2
		c-0.5,0.7-0.8,1.4-1.6,1.9c-0.9-0.4-1.3-1.5-1.8-2.3c-0.9-0.8-0.9-2.5-0.4-3.7c0.4-1.1-0.2-2.1-0.4-3.2l-0.4-0.2
		c-0.9,1.2-1.3,3.2-0.6,4.6c0.4,0.7,0.4,1.7,1,2.3c0.4,1.1,1.1,1.9,1.7,2.9c0.2,0.4-0.2,0.5-0.4,0.7c-0.4-0.3-0.4-0.9-0.7-1.2
		c-1.3-2.8-3-5-5-7.2c-0.1-0.4-0.4-0.7-0.2-1.1c0.7-0.7,0.9-2.1,0.5-3c-0.1-0.2-0.3-0.4-0.3-0.6l-0.6-0.5c0.1,1.4-0.8,2.6-0.4,4.1
		v0.1c-4.1-3-8.5-5.8-13.1-7.9l-0.4,1c1.2,0.3,4.2,2.2,4.2,2.2c1.4,0.5,2.6,1.3,3.9,2.1c5.3,3,8.9,7.9,11.3,13.3
		c0,0.4,0.4,0.9,0.2,1.3c-0.8-1.3-2-2-3-3c-0.3-1.9-1.4-3.6-3-4.4c-0.6-0.9-1.8-1-2.8-1.2l-14.3-0.1c-11.6-0.2-22.3,0.4-33.8,0.2
		c-1.6-0.2-3.6-0.7-4.1-2.4c-0.3-0.6-0.3-1.6,0-2.2c0.4-0.8,1.2-1,2-1.1c0.6,0.1,1.1,0.7,1.3,1.1c0,0.5-0.4,1-0.6,1.4
		c0,0.2,0.2,0.5,0.5,0.4c0.5-0.2,0.9-0.8,1-1.3c0-0.3,0.2-0.7-0.1-0.9c-0.2-0.8-1.1-1.4-1.8-1.6c-1-0.1-2,0.2-2.7,0.9
		c-0.9,0.8-0.9,2.2-0.6,3.3c0.6,1.7,2.5,2.9,4.2,3.2l38.3,0.2c3.7,0.2,7.9-0.4,11.7,0.3c1.4,0.4,2.8,1.5,3.2,3c0,0.1-0.2,0-0.3,0
		c-3.1-2-7.2-2.8-11.2-2.3c-1.6-0.1-3,0.5-4.4,0.9c-0.7,0.2-1.5-0.2-1.9-0.6c-1.4-1.3-3.9-1.2-5.7-0.7c0,0.1,0,0.2,0,0.3
		c1.9-0.2,3.1,1.5,4.8,1.7c0.4,0.1,0.7-0.4,1.1,0c-1.8,0.9-3.5,1.9-5.5,2.5c-0.6-0.1-0.9-0.7-1.4-1c-0.7-0.8-2.1-0.5-3.1-0.6
		c-0.4,0.1-0.7-0.2-0.9,0c0.3,0.6,1,1,1.7,1.3c1,0.4,2.1,0,3,0.6c-0.2,0.3-0.6,0.4-0.8,0.6c-1.8,0.7-3.4,2.4-5.4,2.3
		c-2.2,0.2-4.4-0.4-5.8-1.9c-0.6-1.5-2.2-2.4-4-2.3C79.1,63,78.9,63,79,63.2c0.9,0.5,1.5,1.5,2.4,2.1c0.6,0.7,1.6,0,2.1,0.8
		c0.7,0.5,1.7,1,2.6,1.1c0.6,0.3,1.3,0.4,2,0.6l-0.3,0.2c-3.6,1.2-7.7,1.3-11.7,1.1c-1.2,0-2.3-0.4-3.5-0.4c0.2,0.2,0.6,0.4,0.9,0.6
		c-0.3,0.2-0.7,0.3-1.1,0.3c-0.5,0.1-1,0.2-1.5,0.4c-0.6,0-1.2,0.2-1.7,0.4c-0.7,0.7-1.5,1.5-2.2,1.8c0,0.2,0,0.4,0.2,0.4
		c0.7-0.3,1.7-0.1,2.4-0.4c1.3-0.1,2-1.5,3.1-2.1c1.1-0.9,2.7-0.7,4-0.5c0.8,0.2-0.1,0.5,0.2,1c0.3,0.3,0.6,0.6,1,0.5
		c0.1-0.1,0.2-0.2,0.3-0.2c0.2-0.3,0.2-0.7,0-1c0.6-0.4,1.3,0,1.9-0.2c1.5,0,3-0.4,4.4-0.4c0.2,0,0.5-0.3,0.7,0
		c-0.1,0.3-0.5,0.4-0.4,0.8c0.1,0.4,0.5,0.5,0.8,0.6c0.4-0.2,0.7-0.4,0.6-1c-0.1-0.3-0.4-0.3-0.6-0.4c0.8-0.4,1.8-0.5,2.6-0.9
		c0.6-0.1,1.1-0.3,1.7-0.6c0.5,0,0.9-0.5,1.4-0.3c-0.2,0.7-0.5,1.3-0.8,1.9c-0.6,2.1-1.1,4.9,0,6.9c0.1,0,0.2,0,0.2-0.1
		c-0.8-2.1-0.4-4.5,0.4-6.5c0.5-3.4,4-4.4,6.5-5.6l0.1,0.2c-0.7,1.7-1.7,3.4-1.5,5.5c0.1,0.4-0.2,0.7,0,1c0.7-0.4,1.1-1.1,1.5-1.8
		c0.3-1.8-0.7-4,1.1-5.3c3.2-1.3,6.3-2.9,10-3c0.1,0.1,0.4-0.1,0.4,0.2c-0.8,0.9-1.9,1.7-2.3,2.8c-1.3,1.7-1.2,4.7-0.7,6.9
		c0.4,1.2-0.7,1.9-1.2,2.9c-0.2,0.3-0.3,0.9-0.5,1.3l0.8,0.1c0.7-0.7,1.3-1.6,1.3-2.6c0.1,0.4,0.4,0.7,0.7,0.8
		c0.3-0.4-0.2-0.8-0.3-1.2c0.6-0.4,0.9,0.4,1.4,0.6c0.8,0.2,1.5,0.6,2.4,0.6l0.3-0.3c-0.9-1.3-2.6-1.6-4.1-1.7
		c-0.8-1.3-0.8-2.9-0.7-4.5c0.2-0.8,0.3-1.7,0.8-2.5c0.2-0.6,0.7-1.1,1.1-1.5c0.7-0.7,1.6-1.1,2.5-1.3h0.1c0,0.1,0,0.1,0,0.1
		c-1.1,0.8-1.2,2-1.8,3c-0.7,1-1,2.3-0.4,3.4c0.2,0.5,0.1,1.3,0.7,1.7c0.5-0.7,0.6-1.6,0.8-2.4c-0.1-1.3-0.9-2.5-0.2-3.8
		c0.4-1,1.2-1.4,2.1-1.7c2.2-0.2,4.1,0.9,5.9,1.7c0.4,0.3,1.1,0.5,1.1,1.1c0,1.1-0.6,2.1-1.5,2.7c-1.1,0.6-2.6,0.7-3.6,0
		c-0.6-0.6-0.8-1.6-0.6-2.4c0.4-0.5,1-0.9,1.7-0.6c0.4,0.2,0.7,0.6,1.3,0.4c0.2-0.1,0.3-0.4,0.2-0.6c-0.4-0.2-0.6-0.8-1.2-0.9
		c-0.7-0.1-1.7-0.1-2.2,0.4c-0.8,0.7-1.1,1.8-0.9,2.8c0.3,1.3,1.2,2.2,2.4,2.5c1.8,0.4,3.7-0.1,4.8-1.7c0.5-0.5,0.6-1.1,0.9-1.7
		c1.9,1.1,3.3,3.2,4.1,5.2c0,0.7,0.2,1.4,0,2l1.4,0.1c-0.1-0.3,0-0.7,0.1-0.9c0.5-2.6,2.1-4.8,4.1-6.5c0.7-0.4,0.5,0.5,0.7,0.8
		c0.6,1.5,2,2.6,3.4,3c1.7,0.3,3.2-0.1,4.2-1.4c0.5-1,1.1-2.3,0.3-3.3c-0.5-0.7-1.3-1-2.2-1c-1,0-1.7,0.7-2.2,1.5
		c0,0.3,0,0.7,0.2,0.8c0.2,0,0.5,0,0.6-0.2c0.1-0.6,0.6-0.9,1.1-1.2c0.4-0.2,0.9,0,1.3,0.2c0.4,0.4,0.5,1,0.5,1.5
		c-0.1,0.8-0.6,1.5-1.3,1.9c-1.1,0.6-2.8,0.3-3.8-0.4c-0.5-0.5-0.7-1.1-1.1-1.7c-0.1-0.6-0.3-1.2,0-1.8c1.7-1,3.5-1.8,5.6-2
		c0.8,0.2,1.5,0.7,2.1,1.3c1.8,1.9-0.4,4.5,0.9,6.6c0.5-0.1,0.5-0.7,0.7-1.1c0.6-1.4-0.2-3-0.5-4.4c-0.5-0.9-0.7-1.6-1.5-2.3
		c0.2-0.1,0.3-0.1,0.5-0.1c0.8,0.6,1.7,1.2,2.4,2.1c1.1,1.9,1.7,4.1,1.5,6.5c-0.3,1.2-1.6,1.7-2.6,2.2c-0.4,0.3-0.9,0.8-1.1,1.3
		c0.5,0.3,1.1,0,1.6-0.2c0.7-0.3,1.2-1.2,1.7-1.7c0.1,0,0,0.2,0.1,0.2c0,0.4-0.2,1,0.2,1.1c0.2-0.6,0.2-1.3,0.4-2
		c0.5,0.6,0.6,1.3,0.7,2c0.4,0.7,0.9,1.7,1.9,1.8c0.2-0.4,0-0.7-0.1-1c-0.1-1-0.9-1.5-1.5-2.2c-1.4-1.9-0.7-4.9-1.8-7
		c-0.4-1.1-1.2-2-2.1-2.9l0.2-0.2c1.9,0,3.5,0.6,5.3,1c2.2,1.1,5.3,0.8,6.3,3.6c0.4,1.6,1.1,3,2.2,4.3l0.1-0.1
		c0.2-0.4,0.2-1.1,0-1.5c-0.2-2-2-2.5-2.9-4.1l0.1-0.2c0.9,0.3,1.9,0.5,2.9,0.9c3.1,0.9,5.3,4,5.7,7.2c0,2.5-0.5,4.6-1.5,6.8
		c-0.1,0.3-0.7,0.7-0.3,1c0.4-0.3,0.5-0.8,0.7-1.2c1.3-2.2,2-5.2,1.3-8c0-0.5-0.6-0.9-0.4-1.4c0.2,0.2,0.4,0.3,0.7,0.4
		c0.2-0.2,0.6-0.2,0.7-0.4c0-0.2,0.2-0.5,0-0.7c-0.2-0.4-0.7-0.4-1.1-0.3c-0.2,0.2-0.4,0.6-0.5,0.9c-0.4-0.7-0.8-1.5-1.4-2.1
		l0.1-0.1c1.8,0.6,3.4,1.5,5.2,1.9c0.4,0.2,0.8,0.4,1.4,0.4c1.5,0.6,3.2,0.8,4.8,1.2c1.2-0.1,2.2,0.4,3.3,0.2v-0.1l0,0
		c-0.4-0.6-1.4,0-1.9-0.4c-2.7-0.3-5.3-1-7.7-1.9c0-0.1,0.2-0.1,0.3-0.1c0.4-0.2,0.7-0.6,0.6-1c-0.2-0.3-0.5-0.4-0.9-0.4
		c-0.2,0.1-0.6,0.4-0.6,0.7c0,0.3,0.3,0.7,0.6,0.8c-0.1,0.1-0.2,0-0.4,0c-1.2-0.6-2.4-1.1-3.6-1.6c-0.4-0.1-0.8-0.4-1.2-0.5
		c-0.9-0.4-1.8-0.9-2.7-1.2c-2.5-1.3-5.3-2-8-3c-0.6-0.2-1.1-0.3-1.7-0.5c-1-0.3-2-0.5-2.9-0.8c-3.3-0.8-7.8-0.9-10.7,0.9
		c-0.5-0.2-0.7,0.6-1,0.1c0.8-2.2,3.2-2.9,5.4-3c15.8-0.2,30.6-0.3,46.1-0.5c1.8,0,3.6-0.6,4.5-2.3
		C189.1,55.2,189.2,53.6,188.7,52.5L188.7,52.5z M126.2,67.1c-0.2,0.5-0.5,0.9-0.4,1.4l-0.2,0.1c0.1-0.6-0.5-1-0.3-1.6
		c-0.3-0.5-0.3-1.1-0.6-1.6c-0.4-0.6,0.3-0.9,0.6-1.3c0.6,0.2,0.7,0.8,1.1,1.2C126.7,66,126.1,66.5,126.2,67.1L126.2,67.1z"/>
	<path fill="#333333" d="M168.9,64.6c0,0.1,0.2,0.2,0.2,0.4c-1.4,1.2-3.3,1.6-5.3,1.7c-0.2,0-0.3,0.2-0.5,0.1
		c-0.1-0.1-0.2-0.2-0.1-0.3C164.6,65,166.7,64.2,168.9,64.6L168.9,64.6z"/>
	<path fill="#333333" d="M162.5,65.3c0.2,0.6-0.2,0.9-0.6,1.1c-0.4,0-0.7-0.3-0.9-0.6c-0.1-0.3,0.2-0.5,0.3-0.7
		C161.6,64.7,162.4,64.7,162.5,65.3L162.5,65.3z"/>
	<path fill="#333333" d="M87.8,65.3c0.1,0.3,0,0.6-0.2,0.8c-0.2,0.2-0.5,0.2-0.7,0.2c-0.3,0-0.4-0.4-0.5-0.6c0-0.4,0.2-0.6,0.5-0.8
		C87.2,65,87.5,65,87.8,65.3L87.8,65.3z"/>
	<path fill="#333333" d="M80.7,67.9v0.3c-0.9,0.2-1.8,0-2.6-0.6c-0.6-0.8-1.2-1.6-2.1-2c0-0.1-0.2-0.3,0-0.4
		C78.1,65.3,79.2,66.9,80.7,67.9L80.7,67.9z"/>
	<path fill="#333333" d="M174.8,65.3c-0.9,1.3-1.7,3-3.3,3.6c-0.3,0-0.5,0.4-0.7,0.1c0.6-1.5,2-3.1,3.5-3.8
		C174.4,65.3,174.7,65.2,174.8,65.3L174.8,65.3z"/>
	<path fill="#333333" d="M90,65.8c0,0.4-0.3,0.5-0.6,0.8c-0.3,0-0.5-0.2-0.7-0.4c-0.2-0.4,0.2-0.6,0.4-0.8
		C89.5,65.3,89.9,65.5,90,65.8L90,65.8z"/>
	<path fill="#333333" d="M179.8,66c-0.4,0.5-0.2,1.3-0.5,1.8c-0.8,0.9-1.5,1.9-2.7,2.1c-0.2-0.4,0.3-0.8,0.5-1.1
		c0.6-1.2,1.3-2.5,2.6-3L179.8,66L179.8,66z"/>
	<path fill="#333333" d="M68.5,66.4c0.1,0.3,0.2,0.6,0,0.9c-0.2,0.2-0.6,0.3-0.9,0.2c-0.4-0.2-0.5-0.6-0.3-1
		C67.6,66.1,68.3,65.9,68.5,66.4L68.5,66.4z"/>
	<path fill="#333333" d="M66.3,66.9c0,0.2,0.2,0.4,0.1,0.6c-0.1,0.2-0.3,0.4-0.5,0.5c-0.4,0.1-0.7-0.2-0.9-0.5
		c0-0.4,0.1-0.7,0.4-0.8C65.7,66.4,66.1,66.6,66.3,66.9L66.3,66.9z"/>
	<path fill="#333333" d="M70.9,67.1c0.1,0.3,0.2,0.9-0.3,1c-0.6,0.2-0.9-0.2-1.2-0.5c0-0.4,0.2-0.6,0.5-0.8
		C70.3,66.7,70.7,66.8,70.9,67.1L70.9,67.1z"/>
	<path fill="#333333" d="M77.4,67.6c0,0.3,0,0.7-0.3,0.8c-0.2,0.2-0.5,0.1-0.7,0.1c-0.1-0.2-0.5-0.4-0.3-0.7
		c0.2-0.2,0.3-0.3,0.6-0.4C76.9,67.4,77.2,67.3,77.4,67.6L77.4,67.6z"/>
	<path fill="#333333" d="M183.6,67.9c-0.1,0.3-0.3,0.6-0.6,0.6c-0.4,0-0.7-0.1-0.9-0.4c-0.2-0.4,0.2-0.7,0.5-0.8
		C183,67.3,183.5,67.4,183.6,67.9L183.6,67.9z"/>
	<path fill="#333333" d="M176.4,68.1c0,0.3-0.3,0.6-0.5,0.7c-0.6,0.2-1-0.2-1.2-0.6c0.1-0.4,0.4-0.6,0.7-0.7
		C175.9,67.4,176.1,67.7,176.4,68.1L176.4,68.1z"/>
	<path fill="#333333" d="M181.2,68c0,0.3-0.2,0.6-0.4,0.7c-0.3,0.1-0.7,0.1-0.9-0.2c-0.4-0.3-0.1-0.6,0.2-0.8
		C180.5,67.5,181.1,67.5,181.2,68L181.2,68z"/>
	<path fill="#333333" d="M67.5,68.7c0.1,0.4-0.1,0.8-0.5,1c-0.4,0-0.7-0.2-0.9-0.6c0-0.4,0.1-0.7,0.4-0.8
		C67,68.2,67.3,68.4,67.5,68.7L67.5,68.7z"/>
	<path fill="#333333" d="M174.4,69.1c0.1,0.4-0.1,0.8-0.6,1c-0.3,0.1-0.5-0.1-0.7-0.3c-0.2-0.2-0.4-0.6,0-0.8
		C173.4,68.4,174.2,68.7,174.4,69.1L174.4,69.1z"/>
	<path fill="#333333" d="M88.7,69.5c0.2,0.4-0.3,0.5-0.4,0.8c-0.2,0.1-0.5,0.1-0.6,0c-0.2-0.2-0.4-0.5-0.3-0.8
		c0.2-0.2,0.3-0.3,0.5-0.4C88.3,68.9,88.4,69.3,88.7,69.5L88.7,69.5z"/>
	<path fill="#333333" d="M182.9,69.8c0.1,0.3-0.2,0.4-0.2,0.6c-0.2,0.2-0.6,0.2-0.9,0.2c-0.4-0.2-0.4-0.5-0.4-0.9
		c0.2-0.2,0.3-0.4,0.5-0.4C182.3,69.3,182.7,69.4,182.9,69.8L182.9,69.8z"/>
	<path fill="#333333" d="M180.4,69.9c0.2,0.5-0.3,0.7-0.6,0.8c-0.2,0-0.4-0.1-0.4,0.2c1,0.5,1.7,1.3,2.4,2.1v0.3
		c-1.4,0-2.9-0.4-3.9-1.5c-0.3-0.2-0.7-0.2-1.1-0.5c0.5-0.5,1.5-0.3,2.2-0.4c0.5-0.6-0.6-1,0.1-1.4c0.2,0,0.4-0.3,0.7-0.2
		C180.1,69.5,180.3,69.7,180.4,69.9L180.4,69.9z"/>
	<path fill="#333333" d="M164.3,70c0.1,0.2-0.2,0.4-0.2,0.6c-0.2,0.2-0.6,0.3-0.9,0.2c-0.2-0.3-0.5-0.5-0.4-0.9
		C163.2,69.3,164.2,69.4,164.3,70L164.3,70z"/>
	<path fill="#333333" d="M76.4,71.4c-0.1,0.4-0.3,0.6-0.7,0.6c-0.3,0-0.6-0.2-0.7-0.5c0-0.3,0.2-0.4,0.2-0.6
		C75.7,70.5,76.4,70.8,76.4,71.4L76.4,71.4z"/>
	<path fill="#333333" d="M79.6,70.9c0,0.6-0.6,0.9-0.8,1.4c-0.6,1.3-1.7,2.5-3.1,2.6c-0.2-0.4,0.5-0.8,0.7-1.1
		c0.6-1.3,1.9-2.1,3-2.9H79.6L79.6,70.9z"/>
	<path fill="#333333" d="M163.4,71.4c0,0.4-0.4,0.8-0.7,0.9c-0.4,0.1-0.6-0.2-0.8-0.3c-0.3-0.3-0.1-0.6,0-1
		C162.4,70.6,163.1,71,163.4,71.4L163.4,71.4z"/>
	<path fill="#333333" d="M165.8,71.7c0,0.4-0.3,0.8-0.7,0.9c-0.1-0.1-0.3,0-0.4-0.1c-0.3-0.2-0.5-0.4-0.5-0.7
		c0.2-0.2,0.3-0.5,0.6-0.6C165.1,71.2,165.7,71.2,165.8,71.7L165.8,71.7z"/>
	<path fill="#333333" d="M85.7,71.6c0,0.4-0.3,0.7-0.6,0.8c-0.4,0-0.6-0.2-0.7-0.5c-0.1-0.4,0.3-0.6,0.5-0.8
		C85.3,71.1,85.4,71.4,85.7,71.6L85.7,71.6z"/>
	<path fill="#333333" d="M88.4,71.8c-0.1,0.4-0.4,0.6-0.7,0.7c-0.3-0.1-0.6-0.2-0.7-0.5c0-0.4,0.3-0.6,0.5-0.8
		C87.9,71.2,88.3,71.4,88.4,71.8L88.4,71.8z"/>
	<path fill="#333333" d="M174.3,74.6c0.2,0.2,0.5,0.4,0.5,0.6c-0.6,0.3-1.1-0.4-1.7-0.6c-0.9-1-1.7-2-2-3.2c0.4-0.4,0.7,0.1,1.1,0.2
		C172.9,72.4,173.8,73.4,174.3,74.6L174.3,74.6z"/>
	<path fill="#333333" d="M175.7,71.8c0.1,0.3,0.1,0.6-0.1,0.9c-0.2,0.4-0.7,0.3-1.1,0.2c-0.2-0.2-0.6-0.6-0.3-0.9
		c0.1-0.3,0.5-0.4,0.7-0.5C175.3,71.4,175.5,71.7,175.7,71.8L175.7,71.8z"/>
	<path fill="#333333" d="M92,72.8c0,0.3,0.1,0.8-0.3,1c-0.4,0.1-0.8,0-0.9-0.5c-0.2-0.5,0.2-0.6,0.5-0.8
		C91.6,72.5,91.8,72.6,92,72.8L92,72.8z"/>
	<path fill="#333333" d="M165.7,75.4c0.5,0.8,0.9,1.8,1,2.8c-0.1,0.3,0.2,0.6,0,0.8h-0.2c-1.8-1.3-2.2-3.1-2.8-4.8
		c-0.2-0.1-0.2-0.2-0.2-0.4c0.4-0.4,0.7,0.4,1.1,0.5L165.7,75.4L165.7,75.4z"/>
	<path fill="#333333" d="M97.1,74.1C97.1,74.1,97.1,74.1,97.1,74.1c-1.5,1.2-3.7,1.9-5.5,0.8c0-0.1,0-0.3,0.2-0.4
		c1.1-0.4,2.2-0.9,3.5-0.8L97.1,74.1L97.1,74.1z"/>
	<path fill="#333333" d="M88.2,74.3c-1.3,0.8-2.6,2.5-4.2,2.9c-0.3,0.1-0.5,0.6-0.9,0.3c0.7-2.1,3-3.3,5.1-3.5V74.3L88.2,74.3z"/>
	<path fill="#333333" d="M163.4,76c0.1,0.3,0,0.8-0.3,0.8c-0.2,0.2-0.6,0.2-0.7,0c-0.4-0.2-0.4-0.5-0.4-0.8c0.1-0.3,0.4-0.3,0.6-0.4
		C162.9,75.7,163.2,75.7,163.4,76L163.4,76z"/>
	<path fill="#333333" d="M160.1,76.2c-0.2,0.6-0.9,0.9-1.4,1c-1.3,0.5-2.6-0.2-3.7-0.5c0-0.3,0.4-0.2,0.6-0.4c1.3-0.3,2.6-0.6,4-0.2
		C159.7,76.1,160,76.1,160.1,76.2L160.1,76.2z"/>
	<path fill="#333333" d="M88.2,77.4C88,77.5,88,77.9,87.7,78c-0.3,0.1-0.5,0-0.8-0.2c-0.1-0.2-0.4-0.4-0.2-0.7
		c0.1-0.3,0.4-0.4,0.6-0.4C87.8,76.8,88.1,77,88.2,77.4L88.2,77.4z"/>
	<path fill="#333333" d="M90.5,77.7c-0.1,0.2-0.2,0.6-0.5,0.8c-0.3,0.1-0.6-0.1-0.8-0.3C89,78,88.9,77.7,89,77.4
		c0.1-0.2,0.4-0.2,0.6-0.4C90,77,90.3,77.4,90.5,77.7L90.5,77.7z"/>
	<path fill="#333333" d="M162.6,78.1c0,0.3-0.1,0.5-0.3,0.8c-0.2,0.3-0.6,0.3-0.9,0.2c-0.3,0-0.4-0.4-0.5-0.6
		c-0.2-0.3,0.2-0.5,0.3-0.8C161.7,77.3,162.4,77.5,162.6,78.1L162.6,78.1z"/>
	<path fill="#333333" d="M164.4,78.1c0,0.2,0.2,0.4,0.1,0.6c-0.2,0.2-0.4,0.7-0.9,0.5c-0.2,0.1-0.4-0.2-0.5-0.3
		c-0.2-0.4,0-1,0.5-1.1C163.9,77.6,164.2,77.9,164.4,78.1L164.4,78.1z"/>
	<path fill="#333333" d="M89.1,79.2c0.1,0.4-0.1,0.8-0.4,1.1c-0.4,0.1-1,0.1-1.1-0.4c0-0.4,0-0.9,0.5-1.1
		C88.4,78.7,88.9,78.7,89.1,79.2L89.1,79.2z"/>
	<path fill="#333333" d="M91.3,79.1c-0.1,1.1-0.3,2.5-1.4,3.1c-0.6,0.1-1.3,0.7-1.9,0.3v-0.2C88.8,81.1,90.3,80.2,91.3,79.1
		L91.3,79.1z"/>
	<path fill="#333333" d="M156.5,80c0.2,0.2-0.1,0.4-0.2,0.6c-0.2,0.3-0.7,0.2-0.9,0c-0.3-0.1-0.3-0.5-0.2-0.8
		c0.1-0.2,0.3-0.4,0.5-0.4C156,79.4,156.3,79.7,156.5,80L156.5,80z"/>
	<path fill="#333333" d="M95.2,81.8c0.5,0.9,0.2,2.1,0.5,3.1c-0.7,0.1-0.9-0.7-1.4-1.1c-0.9-1.2-0.7-2.8-1.1-4.2
		c0.1-0.1,0.2-0.1,0.3-0.1c0.6,0.4,1,1.1,1.5,1.7C95,81.5,95.3,81.5,95.2,81.8L95.2,81.8z"/>
	<path fill="#333333" d="M158.4,80.3c0,0.3-0.4,0.4-0.5,0.6c-0.3,0-0.5-0.2-0.7-0.4c-0.1-0.4,0.2-0.5,0.4-0.7
		C157.9,79.6,158.3,79.8,158.4,80.3L158.4,80.3z"/>
	<path fill="#333333" d="M163.1,83.8c0,0.1,0,0.4-0.2,0.3h-0.2c-1.1-1-2.3-2.2-2.1-3.8l0.2,0C161.9,81.2,163.1,82.2,163.1,83.8
		L163.1,83.8z"/>
	<path fill="#333333" d="M160.2,82.5c0,0.3-0.2,0.6-0.4,0.8c-0.4,0.1-1.1,0.1-1.2-0.5c0-0.4,0.4-0.6,0.6-0.8
		C159.7,81.9,160,82.2,160.2,82.5L160.2,82.5z"/>
	<path fill="#333333" d="M157.6,83.4c-0.5,1.5-2,2.2-3.1,3.3c-0.2-0.1-0.1-0.4-0.1-0.6c0.4-1.5,1.6-3,3-3.6
		C158.1,82.6,157.5,83.1,157.6,83.4L157.6,83.4z"/>
	<path fill="#333333" d="M160.5,84.6c0,0.4-0.4,0.5-0.5,0.7c-0.3,0-0.6-0.1-0.9-0.4c0-0.4,0.3-0.5,0.5-0.7
		C160,84,160.4,84.2,160.5,84.6L160.5,84.6z"/>
	<path fill="#333333" d="M131.3,12.6c0.5,0,1,0.4,1,1c0,0.5-0.4,1-1,1h-11.7c-0.5,0-1-0.4-1-1c0-0.5,0.4-1,1-1H131.3L131.3,12.6z
		 M123,14.3c1.1,0,0.1-1.4-0.6-1.4h-1.1c-1.1,0-0.1,1.4,0.5,1.4H123L123,14.3z M127.8,14.3c1.1,0,0.1-1.4-0.6-1.4h-1.1
		c-1.1,0-0.1,1.4,0.6,1.4H127.8L127.8,14.3z M131.3,13h-0.4c-1.1,0-0.2,1.4,0.4,1.4C132.1,14.3,132.1,13,131.3,13L131.3,13z"/>
	<path fill="#333333" d="M130.2,26l2.2,0.9l2.2-0.9l-0.9,3.3l1.7-0.4l-0.6,2l0.6,1.9l-1.5-0.4l0.7,3.5l-2.2-0.9l-2.2,0.9l0.9-3.5
		l-1.8,0.5l0.5-2l-0.5-1.9l1.7,0.3L130.2,26L130.2,26z M133.5,31.9c0.5,0,0.5-0.7,0.5-1.3c0-1.4-1.1,0-1.6-1.3
		c-0.4,1.1-1.5,0.1-1.5,1.2c0,0.8,0,1.3,0.8,1.3H133.5L133.5,31.9z M131.3,30.7c0,0.5,0.7,0.2,1.2,0.2c0.5,0,1.2,0.3,1.2-0.2
		c0-0.7-0.7-0.5-1.2-0.5C132,30.3,131.3,30,131.3,30.7L131.3,30.7z"/>
	<polygon fill="#333333" points="125,30.9 125,30.4 124.6,30.4 124.9,30.1 124.8,29.7 125.1,29.8 125.4,29.4 125.6,29.8 126,29.7 
		125.8,30.1 126.1,30.4 125.7,30.4 125.7,30.9 125.4,30.6 125,30.9 	"/>
	<polygon fill="#333333" points="123.3,33.1 123.3,32.7 122.9,32.6 123.2,32.3 123,32 123.4,32 123.6,31.6 123.9,32 124.3,32 
		124.1,32.3 124.4,32.6 124,32.7 124,33.1 123.6,32.8 123.3,33.1 	"/>
	<polygon fill="#333333" points="126.2,32.8 126.2,32.4 125.9,32.3 126.1,32 126,31.7 126.3,31.7 126.6,31.3 126.8,31.7 127.2,31.7 
		127,32 127.3,32.3 126.9,32.4 126.9,32.8 126.6,32.5 126.2,32.8 	"/>
	<polygon fill="#333333" points="126.6,34.5 126.6,34.2 126.4,34.2 126.5,34 126.4,33.8 126.6,33.8 126.8,33.6 126.9,33.8 
		127.1,33.8 127,34 127.2,34.2 127,34.2 127,34.5 126.8,34.3 126.6,34.5 	"/>
	<polygon fill="#333333" points="123.8,36.4 123.8,35.7 123.2,35.5 123.7,35 123.4,34.4 124.1,34.5 124.4,33.8 124.8,34.5 
		125.5,34.4 125.2,35 125.7,35.5 125.1,35.7 125.1,36.4 124.4,35.9 123.8,36.4 	"/>
	<polygon fill="#333333" points="125.2,-1 126.6,2.4 130.1,1.4 128.3,4.6 131.3,6.7 127.7,7.3 127.9,11 125.2,8.5 122.5,11 
		122.7,7.3 119.1,6.7 122.1,4.6 120.3,1.4 123.8,2.4 125.2,-1 	"/>
	<path fill="#333333" d="M112.5,75.4c-0.4,0.2-0.6,0.3-0.5,0.7l0.5,2.1c0.1,0.4,0.1,1-0.1,1.4c-0.3,0.4-1,0.7-1.4,0.8
		c-0.3,0.1-1.1,0.2-1.7,0c-0.4-0.2-0.6-0.3-0.8-1.1l-0.5-2.2c-0.1-0.5-0.3-0.5-0.8-0.4l0-0.2l2.6-0.6l0,0.2
		c-0.5,0.1-0.8,0.2-0.6,0.8l0.5,2.2c0.1,0.4,0.3,1.3,1.4,1c1.4-0.3,1.2-1.3,1.1-1.8l-0.5-2c-0.1-0.4-0.2-0.6-0.9-0.5l0-0.2l1.7-0.4
		L112.5,75.4L112.5,75.4z"/>
	<path fill="#333333" d="M116.5,75.8c-0.2-0.4-0.9-1.1-1.8-0.9c-0.4,0.1-0.8,0.4-0.7,0.8c0.1,0.4,0.3,0.5,1,0.6l1.3,0.2
		c0.3,0.1,1,0.3,1.1,1c0.1,0.6-0.2,1.5-1.6,1.8c-0.7,0.2-1.1,0-1.4,0.1c-0.2,0-0.2,0.2-0.2,0.3l-0.2,0.1l-0.4-1.6l0.2-0.1
		c0.3,0.6,0.9,1.3,1.9,1c0.9-0.2,0.8-0.9,0.8-1c-0.1-0.4-0.5-0.5-1.1-0.6l-0.6-0.1c-1.5-0.2-1.6-0.8-1.6-1.1c-0.1-0.4,0-1.3,1.4-1.7
		c0.6-0.1,1,0,1.3-0.1c0.2,0,0.2-0.1,0.2-0.3l0.2-0.1l0.3,1.4L116.5,75.8L116.5,75.8z"/>
	<path fill="#333333" d="M121.6,78.4l-2.9,0.3l0-0.2c0.6-0.1,0.8-0.1,0.7-0.7l-0.3-3.5c-0.6,0.1-1.4,0.2-1.4,1.3l-0.2,0l-0.1-1.3
		l4.8-0.5l0.1,1.3l-0.2,0c-0.3-1.1-1.1-1-1.6-1l0.3,3.5c0.1,0.6,0.2,0.6,0.8,0.5L121.6,78.4L121.6,78.4z"/>
	<path fill="#333333" d="M128.3,78.4l-1.6,0l-1.6-2.1l-0.2,0l0,1.3c0,0.5,0.2,0.6,0.7,0.6l0,0.2l-2.7-0.1l0-0.2
		c0.5,0,0.7-0.1,0.7-0.6l0.1-3c0-0.6-0.2-0.6-0.7-0.6l0-0.2l2.6,0.1c0.6,0,2.3,0.1,2.2,1.2c0,0.8-0.8,1-1.3,1.1l1.6,2
		c0.1,0.1,0.2,0.1,0.3,0.1L128.3,78.4L128.3,78.4z M124.8,76c1,0,1.5-0.1,1.5-1c0-0.7-0.3-1-1-1c-0.4,0-0.5,0.1-0.5,0.3L124.8,76
		L124.8,76z"/>
	<path fill="#333333" d="M133.6,79.1l-2.6-0.3l0-0.2c0.5,0,0.6,0,0.7-0.2c0-0.2-0.2-0.7-0.3-0.9l-1.8-0.2c-0.3,0.5-0.4,0.7-0.5,0.8
		c0,0.3,0.3,0.3,0.6,0.4l0,0.2l-1.6-0.2l0-0.2c0.4,0,0.6-0.2,0.9-0.7l2.2-3.4l0.2,0l1.3,3.7c0.3,0.8,0.4,1,0.8,1L133.6,79.1
		L133.6,79.1z M131.3,77.2l-0.6-1.7l-0.9,1.5L131.3,77.2L131.3,77.2z"/>
	<path fill="#333333" d="M138.2,80l-4.6-0.8l0-0.2c0.5,0,0.7,0.1,0.8-0.3l0.6-3.2c0.1-0.4-0.2-0.5-0.6-0.6l0-0.2l2.8,0.5l0,0.2
		c-0.6-0.1-0.8-0.1-0.9,0.5l-0.6,3.1c-0.1,0.3,0.1,0.4,0.6,0.5c1.2,0.2,1.7-0.2,2.2-0.9l0.2,0L138.2,80L138.2,80z"/>
	<path fill="#333333" d="M141.3,80.7l-2.7-0.6l0-0.2c0.4,0.1,0.7,0.1,0.8-0.3l0.7-3.2c0.1-0.4-0.3-0.5-0.6-0.6l0-0.2l2.7,0.6l0,0.2
		c-0.4-0.1-0.7-0.1-0.8,0.3l-0.7,3.2c-0.1,0.4,0.2,0.5,0.6,0.6L141.3,80.7L141.3,80.7z"/>
	<path fill="#333333" d="M146.8,81.4l-2.6-0.3l0-0.2c0.5,0,0.6,0,0.7-0.2c0-0.2-0.2-0.7-0.3-0.9l-1.8-0.2c-0.3,0.5-0.4,0.7-0.4,0.8
		c0,0.3,0.4,0.3,0.6,0.4l0,0.2l-1.6-0.2l0-0.2c0.4,0,0.6-0.2,0.9-0.7l2.1-3.5l0.2,0l1.4,3.7c0.3,0.8,0.4,1,0.8,1L146.8,81.4
		L146.8,81.4z M144.6,79.6l-0.6-1.7l-0.9,1.5L144.6,79.6L144.6,79.6z"/>
	<path fill="#333333" d="M126.3,27.1c0-1.6-0.9-0.1-1.4-1.5c-0.4,1.2-1.5,0.2-1.5,1.4c0,0.5,0.1,0.8,0.4,0.9v0.5
		c0,0.1,0.1,0.2,0.2,0.2h1.7c0.1,0,0.2-0.1,0.2-0.2v-0.5C126.2,27.8,126.3,27.5,126.3,27.1L126.3,27.1z M124.9,27.4
		c-0.5,0-1.1,0.3-1.1-0.2c0-0.8,0.5-0.6,1-0.6c0.5,0,1.2-0.2,1.2,0.6C126,27.8,125.4,27.4,124.9,27.4L124.9,27.4z"/>
	<path fill="#333333" d="M140.4,47c0.4,0,0.7-0.3,0.7-0.7c0-0.4-0.3-0.7-0.7-0.7c-0.4,0-0.7,0.3-0.7,0.7C139.7,46.7,140,47,140.4,47
		L140.4,47z"/>
	<path fill="#333333" d="M136.9,23c0,0-0.3,0.6-0.3,0.7c0,0.2,0.2,0.4,0.4,0.4c0.2,0,0.4-0.2,0.4-0.4C137.3,23.7,136.9,23,136.9,23
		L136.9,23z"/>
	<path fill="#333333" d="M113.2,23c0,0-0.3,0.6-0.3,0.7c0,0.2,0.2,0.4,0.4,0.4c0.2,0,0.4-0.2,0.4-0.4C113.5,23.7,113.2,23,113.2,23
		L113.2,23z"/>
	<path fill="#333333" d="M119.1,23c0,0-0.3,0.6-0.3,0.7c0,0.2,0.2,0.4,0.4,0.4c0.2,0,0.4-0.2,0.4-0.4C119.5,23.7,119.1,23,119.1,23
		L119.1,23z"/>
	<path fill="#333333" d="M125,23c0,0-0.3,0.6-0.3,0.7c0,0.2,0.2,0.4,0.4,0.4c0.2,0,0.4-0.2,0.4-0.4C125.4,23.7,125,23,125,23L125,23
		z"/>
	<path fill="#333333" d="M131,23c0,0-0.3,0.6-0.3,0.7c0,0.2,0.2,0.4,0.4,0.4c0.2,0,0.4-0.2,0.4-0.4C131.3,23.7,131,23,131,23L131,23
		z"/>
	<path fill="#333333" d="M113.2,31.2c0,0,0.3,0.6,0.3,0.7c0,0.2-0.2,0.4-0.4,0.4c-0.2,0-0.4-0.2-0.4-0.4
		C112.8,31.8,113.2,31.2,113.2,31.2L113.2,31.2z"/>
	<path fill="#333333" d="M113.2,39.1c0,0,0.3,0.6,0.3,0.7c0,0.2-0.2,0.4-0.4,0.4c-0.2,0-0.4-0.2-0.4-0.4
		C112.8,39.8,113.2,39.1,113.2,39.1L113.2,39.1z"/>
	<path fill="#333333" d="M114.1,45.4c0,0,0.3,0.6,0.3,0.7c0,0.2-0.2,0.4-0.4,0.4c-0.2,0-0.4-0.2-0.4-0.4
		C113.8,46,114.1,45.4,114.1,45.4L114.1,45.4z"/>
	<path fill="#333333" d="M119.1,48.7c0,0,0.3,0.6,0.3,0.7c0,0.2-0.2,0.4-0.4,0.4c-0.2,0-0.4-0.2-0.4-0.4
		C118.8,49.4,119.1,48.7,119.1,48.7L119.1,48.7z"/>
	<path fill="#333333" d="M137.2,31.2c0,0-0.3,0.6-0.3,0.7c0,0.2,0.2,0.4,0.4,0.4c0.2,0,0.4-0.2,0.4-0.4
		C137.6,31.8,137.2,31.2,137.2,31.2L137.2,31.2z"/>
	<path fill="#333333" d="M137.2,39.1c0,0-0.3,0.6-0.3,0.7c0,0.2,0.2,0.4,0.4,0.4c0.2,0,0.4-0.2,0.4-0.4
		C137.6,39.8,137.2,39.1,137.2,39.1L137.2,39.1z"/>
	<path fill="#333333" d="M136.3,45.4c0,0-0.3,0.6-0.3,0.7c0,0.2,0.2,0.4,0.4,0.4c0.2,0,0.4-0.2,0.4-0.4
		C136.6,46,136.3,45.4,136.3,45.4L136.3,45.4z"/>
	<path fill="#333333" d="M131.3,48.7c0,0-0.3,0.6-0.3,0.7c0,0.2,0.2,0.4,0.4,0.4c0.2,0,0.4-0.2,0.4-0.4
		C131.7,49.4,131.3,48.7,131.3,48.7L131.3,48.7z"/>
	<path fill="#333333" d="M125.2,52.2c0,0-0.3,0.6-0.3,0.7c0,0.2,0.2,0.4,0.4,0.4c0.2,0,0.4-0.2,0.4-0.4
		C125.6,52.9,125.2,52.2,125.2,52.2L125.2,52.2z"/>
	<path fill="#333333" d="M134.9,40.4c0.1,0.1,0.3,0.2,0.5,0.1l0.2-0.6c0,0-0.3-0.3-0.4-0.3c-0.6,0.2-1.3,0.2-1.7,0.8
		c0,0.4,0.3,0.8,0.6,1c0.2-0.1,0.3,0.2,0.4,0.3c0,0.2-0.1,0.3-0.3,0.3c-0.4-0.5-1.2,0.2-1.6-0.4c0.1-0.6,0.4-1.2,0-1.7
		c0-0.1,0.2-0.2,0.1-0.3c-0.2-0.5-0.7-0.1-1.1-0.1c-0.6-0.1-1,0.2-1.3,0.7c0,0.2,0.1,0.4,0.3,0.6c0.2,0,0.2,0,0.3,0.2l-0.4,0.2
		c0.1,0.1,0.1,0.3,0.2,0.4c-0.3,0.1-0.5-0.3-0.6-0.5c0-0.3,0-0.8-0.4-0.9c-0.1,0-0.3,0.1-0.3,0.1c-0.1,0.1-0.2,0.3-0.2,0.6
		c0,0.3,0.1,0.7,0.1,0.7s1.2,0.9,1.4,1.4c-0.3,0.7-0.3,1.6-1.1,2c-0.2,0.2-0.2,0.4-0.2,0.6l0.2,0.2c0.5-0.3,1.4-0.3,1.3-1.2
		c0.2-0.3,0.4-0.7,0.7-1c0.4-0.1,0.7,0.1,0.9,0.4c-0.1,0.6-0.5,0.9-1,1.1c-0.1,0.1,0,0.2,0,0.3c0.2,0.3,0.6,0.2,0.8,0.1
		c0.6-0.4,0.9-1.2,1.5-1.4c0.1,0.4-0.7,0.5-0.2,0.9c0.3-0.1,0.8,0,1-0.4c-0.3-0.6,0.9-0.9,0.2-1.5c0-0.6,0.6-0.8,0.6-1.4
		c-0.2-0.6-0.9-0.6-1.1-1.2C134.3,40.3,134.7,40.3,134.9,40.4L134.9,40.4z"/>
	<path fill="#333333" d="M107.6,47.3c0.4,0,0.7-0.3,0.7-0.7c0-0.4-0.3-0.7-0.7-0.7c-0.4,0-0.7,0.3-0.7,0.7
		C106.9,47,107.2,47.3,107.6,47.3L107.6,47.3z"/>
	<path fill="#333333" d="M69.1,69.8c0.4,0,0.7-0.3,0.7-0.7c0-0.4-0.3-0.7-0.7-0.7c-0.4,0-0.7,0.3-0.7,0.7
		C68.4,69.4,68.7,69.8,69.1,69.8L69.1,69.8z"/>
	<path fill="#333333" d="M93.6,75.2L93.6,75.2L93.6,75.2l-0.1-0.1v0C93.5,75.2,93.5,75.2,93.6,75.2L93.6,75.2h-0.2v0c0,0,0,0,0,0
		v-0.1c0,0,0,0,0,0v0h0.1C93.5,75.1,93.6,75.1,93.6,75.2C93.6,75.1,93.6,75.1,93.6,75.2L93.6,75.2C93.6,75.2,93.6,75.2,93.6,75.2
		L93.6,75.2L93.6,75.2z M93.5,75.1C93.5,75.1,93.5,75.1,93.5,75.1C93.5,75.1,93.5,75.1,93.5,75.1C93.5,75.1,93.5,75.1,93.5,75.1
		L93.5,75.1L93.5,75.1z"/>
	<path fill="#333333" d="M93.7,75.1C93.7,75.1,93.7,75.1,93.7,75.1C93.6,75.1,93.6,75.1,93.7,75.1C93.6,75.1,93.6,75.1,93.7,75.1
		L93.7,75.1C93.7,75.1,93.7,75.2,93.7,75.1C93.7,75.2,93.7,75.2,93.7,75.1C93.6,75.2,93.6,75.2,93.7,75.1
		C93.6,75.2,93.6,75.2,93.7,75.1L93.7,75.1L93.7,75.1L93.7,75.1C93.6,75.2,93.6,75.2,93.7,75.1C93.7,75.2,93.7,75.2,93.7,75.1
		C93.7,75.2,93.7,75.2,93.7,75.1L93.7,75.1C93.6,75.1,93.6,75.1,93.7,75.1C93.6,75.1,93.6,75.1,93.7,75.1
		C93.7,75.1,93.7,75.1,93.7,75.1C93.7,75.1,93.7,75.1,93.7,75.1L93.7,75.1L93.7,75.1L93.7,75.1L93.7,75.1z"/>
	<path fill="#333333" d="M94,75.1C93.9,75.1,93.9,75.1,94,75.1l-0.1,0.1h0l0-0.1h0l0,0.1h0l0-0.1c0,0,0,0,0,0v0h0.1v0c0,0,0,0,0,0
		c0,0,0,0,0,0l0,0.1h0l0-0.1l0,0c0,0,0,0,0,0v0L94,75.1L94,75.1C93.9,75.1,93.9,75.1,94,75.1C93.9,75.1,93.9,75.1,94,75.1L94,75.1
		L94,75.1L94,75.1C93.9,75.1,93.9,75.1,94,75.1C93.9,75.1,93.9,75.1,94,75.1L94,75.1L94,75.1L94,75.1L94,75.1z"/>
	<path fill="#333333" d="M94,75.2C94,75.2,94,75.2,94,75.2C94,75.2,94,75.2,94,75.2C94,75.2,94,75.2,94,75.2
		C94,75.2,94,75.2,94,75.2c0-0.1,0-0.1,0-0.1c0,0,0.1,0,0.1,0.1C94.1,75.2,94,75.2,94,75.2L94,75.2L94,75.2z M94,75.2
		C94,75.2,94,75.2,94,75.2C94,75.2,94,75.1,94,75.2C94,75.1,94,75.1,94,75.2C94,75.1,94,75.1,94,75.2C94,75.1,94,75.2,94,75.2
		L94,75.2z"/>
	<path fill="#333333" d="M94.1,75.1C94.1,75.1,94.1,75.1,94.1,75.1C94.2,75.1,94.2,75.2,94.1,75.1C94.2,75.2,94.1,75.2,94.1,75.1
		C94.1,75.2,94.1,75.2,94.1,75.1C94.1,75.2,94.1,75.2,94.1,75.1C94.1,75.2,94.1,75.2,94.1,75.1C94.1,75.2,94.1,75.2,94.1,75.1
		C94.1,75.2,94.1,75.2,94.1,75.1C94.1,75.2,94.1,75.2,94.1,75.1L94.1,75.1L94.1,75.1L94.1,75.1L94.1,75.1L94.1,75.1L94.1,75.1z"/>
	<path fill="#333333" d="M138.9,22.1L138.9,22.1l-27.4,0v0h0l0,20.9c0,2.1,0.9,4,2.2,4.6l10.5,6.7c0.2,0.3,0.6,0.4,1,0.4
		c0.3,0,0.6-0.1,0.9-0.3l10.7-6.8c1.3-0.6,2.2-2.4,2.2-4.6L138.9,22.1L138.9,22.1L138.9,22.1z M138.1,43.3c-0.1,1.6-0.7,2.9-1.8,3.7
		L126,53.5H126c-0.2,0.2-0.5,0.3-0.8,0.3c-0.3,0-0.6-0.1-0.8-0.3L114,46.9c-1.1-0.7-1.6-2.1-1.8-3.7V22.8h25.9V43.3L138.1,43.3z"/>
	<path fill="#333333" d="M128.9,52.6l0.3-0.2C129.1,52.5,129,52.5,128.9,52.6L128.9,52.6z"/>
	<path fill="#333333" d="M108.2,81.2l-2.6,0.3l0-0.2c0.5-0.1,0.6-0.1,0.6-0.3c0-0.2-0.3-0.6-0.5-0.8l-1.8,0.2
		c-0.2,0.5-0.3,0.8-0.3,0.9c0,0.3,0.4,0.2,0.7,0.2l0,0.2l-1.6,0.2l0-0.2c0.4-0.1,0.5-0.3,0.7-0.9l1.3-3.9l0.2,0l2.2,3.3
		c0.4,0.7,0.6,0.9,1,0.8L108.2,81.2L108.2,81.2z M105.6,79.9l-1-1.5l-0.6,1.7L105.6,79.9L105.6,79.9z"/>
	<path fill="#333333" d="M153.6,71.4c-0.5-1.2-1.5-2.1-2.7-2.5c-1.3-0.3-2.6-0.1-3.4,0.9c-1.4,1.1-0.4,3-0.4,4.6
		c0,0.3,0,0.6-0.3,0.7c-5.7-0.5-11-1.9-16.7-2.5c-1.3-0.2-2.6-0.2-3.8-0.4l-1.6-0.2c-4.9,0.2-9.8,0.4-14.4,1.6
		c-1,0.3-2.1,0.4-3.1,0.8c-0.7-0.1-1.3,0.4-2,0.2l-1.3,0.3c-0.1,0-0.3,0-0.4,0c-0.6-1.6,1.3-2.6,0.7-4.2c-0.5-0.9-1.5-1.8-2.7-1.6
		c-1.3-0.2-2.5,0.6-3.1,1.6c-0.9,2,0.2,4,0.6,6c-0.1,0.6,0.6,1.3,0,1.9c-1.3-0.9-2.9-1.3-4.4-0.9c-0.5,0.2-1.3-0.1-1.6,0.5
		c1.7,0.9,3.9,0.8,5.7,0.7c0.2-0.1,0.4-0.1,0.6,0c0.2,1-0.2,2.4,0.4,3.3c0.7,1,1.9,1.2,3,1.3c3.6-0.1,6.8-1.2,10.1-2
		c0.5,0,0.9-0.3,1.5-0.3c1.8-0.4,3.7-0.7,5.6-0.8c-0.8,1.1-1.3,2.3-1.7,3.6c-0.5,1.1,0.8,1.2,1.2,1.8c-1.2,0.4-2.1,1.2-3.2,1.7
		c-2.5-0.1-4.6,0.9-7,1.1c0,0.5,0.8,0.4,0.9,0.9c-0.1,0.4-0.5,0.4-0.7,0.6c0,0.2,0,0.3,0.2,0.3c0.2-0.3,0.7-0.1,1-0.4
		c0.8,0,1.5-0.2,2.2-0.3c0.7-0.3,1.4-0.3,2-0.8c0.8-0.2,1.3-0.8,2.2-1c1.2,0,2.2-0.4,3.3-0.5v0.2c-0.9,1.5-1.8,3-2.8,4.4
		c-0.2,0.3,0,0.6,0.3,0.6c0.6,0.2,1.1,0,1.5-0.2c0.8-1.4,1.6-2.8,2.2-4.2c0.3-1.3,1.3-2.1,2.2-3c0.2-0.1,0.4-0.3,0.6-0.1
		c-0.8,0.9-1.3,1.8-1.9,2.8c-0.3,1.1-0.4,2.5,0.6,3.4c0.5,0.4,1.2,0.3,1.8,0.3c1.5-0.8,3.5,0.5,4.7-1c0.7-0.1,0.8,0.7,1.2,1.1
		c0.7,0.2,1.4,0.9,2,0.4c0-0.4-0.5-0.8-0.7-1.2c-0.5-0.8-1.1-1.5-1.5-2.3c-0.2-0.6-0.5-0.9-0.6-1.5c0.7,0.2,1.3,0.7,2.1,0.8
		c0.7,0.3,1.5,0.2,2.1,0.6c0.5,0.7,1.3,1.1,2,1.5c1,0.5,2.1,0.6,3.1,1c0.4,0,1,0.4,1.3,0c-0.2-0.2-0.4-0.3-0.6-0.4
		c-0.1-0.5,0.7-0.2,1-0.6c-0.1-0.2-0.3-0.3-0.5-0.3c-0.6-0.3-2-0.4-2.3-0.6c-0.5-0.1-0.9-0.3-1.4-0.4c-2.4,0-3.7-2.1-5.5-2.9
		c0.4-0.4,1.1-0.7,1.4-1.3c0.4-0.6,0.5-1.5,0.1-2.1c-0.4-1.2-1.9-1.1-2.8-1.7l0.1-0.1c1.5-0.1,2.9,0.3,4.2,0.6
		c3.8,0.5,7.3,1.9,11.2,2c2.2,0,4.9,0.1,5.9-2c0.2-1.2,0.4-2.5,0.6-3.7C152.5,75.4,153.8,73.6,153.6,71.4L153.6,71.4z M111.1,89.5
		l-0.5-0.5c0.3-0.4,0.9-0.2,1.3-0.4c1-0.3,2.2-0.7,3.3-0.5C114,89,112.5,89.2,111.1,89.5L111.1,89.5z M135.7,88.8
		c0.9,0.4,2.8,0.8,4.2,1c-0.1,0.5-1.1,0-1,0.8c-1.2-0.5-2.6-0.7-3.5-1.7C135.4,88.9,135.5,88.8,135.7,88.8L135.7,88.8z M98.8,72
		c0.1-0.7,0.3-1.5,0.9-2c0.9-0.5,2.2-0.4,3.1,0.1c0.3,0.2,0.5,0.4,0.6,0.8c0.2,0.7-0.1,1.4-0.6,1.8h-0.4c0-0.6,0-1.3,0.2-1.8
		c0-0.5-0.4-0.5-0.7-0.7c-0.7-0.2-1.3,0.1-1.8,0.4c-0.4,0.5-0.7,1.1-0.5,1.7c0.3,0.4,0,1,0.2,1.5L99.8,74
		C99.3,73.5,98.7,72.9,98.8,72L98.8,72z M100.6,73.1c0.6,0.4,1.4,0.2,2.1,0.4c0.1,0.4,0.1,1-0.2,1.3c-0.7-0.2-1.5-0.1-1.9-0.7
		C100.7,73.8,100.5,73.5,100.6,73.1L100.6,73.1z M100.5,71.8c0.1-0.3,0-0.8,0.4-0.9c0.3-0.1,0.7-0.1,0.7,0.2c0,0.5-0.1,0.9-0.2,1.4
		C100.9,72.6,100.7,72.3,100.5,71.8L100.5,71.8z M118.9,84.5c-0.2-1.4,0.4-2.6,1.3-3.6c0.5-0.1,1.2-0.2,1.7,0.1
		c-1,0.3-2.3,0.5-2.6,1.8c0,0.5-0.1,0.8,0.1,1.2c0.4,0.8,1.4,0.4,2,1c0,0.2-0.2,0.4-0.4,0.5C120.4,85.2,119.6,85,118.9,84.5
		L118.9,84.5z M117.5,87.3c0.9-0.4,1.9-1.2,3-0.9C119.8,87,118.6,87.2,117.5,87.3L117.5,87.3z M121.3,87.6c-0.6,1.3-1.2,2.5-1.9,3.7
		c-0.1,0.2-0.4,0.2-0.6,0.3c0-0.6,0.6-1,0.8-1.5c0.8-1.1,1.1-2.2,2-3.2C121.7,87.2,121.3,87.3,121.3,87.6L121.3,87.6z M122.3,85.4
		v0.2h-0.1L122.3,85.4L122.3,85.4L122.3,85.4C122.3,85.3,122.2,85.3,122.3,85.4L122.3,85.4L122.3,85.4z M121.9,84.3
		c-0.7-0.1-1.3-0.3-1.9-0.5c-0.4-0.4,0-0.8,0-1.3c0.6-0.9,2.1-1.3,2.9-0.5C122.8,82.9,122.5,83.6,121.9,84.3L121.9,84.3z
		 M122.8,84.3c0.1-0.5,0.4-1.2,0.6-1.7C123.4,83.1,123.1,83.8,122.8,84.3L122.8,84.3z M123.2,81.1c-0.5-0.1-0.8-0.7-1.3-0.7
		c0.5-0.2,0.9-0.1,1.5,0C123.6,80.6,123.2,80.8,123.2,81.1L123.2,81.1z M123.7,82.3L123.7,82.3l0-0.4h0V82.3L123.7,82.3z
		 M123.7,84.1c0-0.2,0.1-0.4,0.1-0.6c0.2-0.2,0.4,0.2,0.5,0.3C124.2,84,123.9,84.1,123.7,84.1L123.7,84.1z M124.3,81.6
		c0.2-0.6,0.2-1,0.6-1.5c0.4,0,0.7,0,1.1,0.2c0.1,0.8,1.1,1.9,0,2.5c-0.4,0.2-0.9,0.5-1.3,0.2C124.2,82.6,124.1,82.2,124.3,81.6
		L124.3,81.6z M127.2,80.5c-0.1-0.4,0.4-0.1,0.5-0.2l1.2,0.1C128.3,80.3,127.5,81.7,127.2,80.5L127.2,80.5z M129.1,81
		c-0.5,0.2-0.8,0.7-1.3,0.8C128.1,81.4,128.7,81,129.1,81L129.1,81z M127.5,83.5v0.1h0L127.5,83.5L127.5,83.5L127.5,83.5z
		 M127.6,85.9c0,0.1,0,0.2-0.1,0.3l-0.9-0.7C127,85.4,127.3,85.6,127.6,85.9L127.6,85.9z M126.5,84.7c0.1-0.1,0.3-0.1,0.4,0H126.5
		L126.5,84.7z M126,84.1c0.2-0.2,0.4-0.6,0.6-0.6c0,0,0,0.1,0.1,0.1C126.4,83.8,126.2,84,126,84.1L126,84.1z M125,84h-0.2l0.2-0.2
		C125.2,83.8,125.1,83.9,125,84L125,84z M125.2,85.5c0.5-0.6,1,0.3,1.2,0.8c0.6,0.9,2.1,1.7,1.5,2.9c-0.7,0.7-1.9,0-2.8,0.6
		c-0.4,0-1.2,0.1-1.4-0.4C124.1,88,124.5,86.6,125.2,85.5L125.2,85.5z M124.1,86.3l0.2-0.3c-0.3,1-0.8,1.9-1.3,2.9
		C122.7,87.8,123.7,87.1,124.1,86.3L124.1,86.3z M125.8,91c-0.7,0-1.9,0.5-2.6-0.2c0-0.3-0.3-0.5-0.3-0.8c0.6-0.2,1.2,0.5,1.8,0
		c0.9,0,1.8-0.1,2.8,0.1c0.4,0.1,1.1-0.7,1.2,0.1C128.3,91.5,126.7,90.6,125.8,91L125.8,91z M128.1,85.3v-0.1h0.1L128.1,85.3
		L128.1,85.3L128.1,85.3z M128.3,87.8c0,0.4,0.4,0.6,0.2,0.9C128.4,88.5,128.2,88.2,128.3,87.8L128.3,87.8z M129.4,90.1l-0.2,0.1
		c-0.2-0.2-0.1-0.6-0.1-0.8C129.4,89.6,129.6,89.9,129.4,90.1L129.4,90.1z M131.4,91.1c0,0.1-0.2,0.1-0.3,0
		c-1.2-1.5-1.7-3.1-2.5-4.8l0.2,0C129.7,87.9,130.4,89.6,131.4,91.1L131.4,91.1z M132.8,87.5c-0.1,0-0.1,0.1-0.1,0.2
		c-1.1,0-1.9-0.6-2.8-1.2l0-0.2C131,86.3,131.9,86.9,132.8,87.5L132.8,87.5z M131.8,82.2c0.5,0.1,0.5,0.6,0.6,1
		c0,0.9-0.5,1.6-1.3,1.9c-0.4,0.2-1.1,0.3-1.5,0.2c0.9,0,2-0.4,2.4-1.3L131.8,82.2L131.8,82.2z M130.9,82c0.2,0.6,0.5,1.1,0.4,1.7
		c-0.4,0.8-1.2,0.8-1.9,0.9c-0.4,0-0.6-0.1-0.9-0.3c0-0.2,0-0.3-0.2-0.4c0.1-0.5-0.9-1-0.2-1.5C128.8,81.9,130.3,80.6,130.9,82
		L130.9,82z M150.9,79.1c-0.3,0.4,0,1-0.4,1.4c0,0.7-0.6,1.1-1.1,1.3c-4.7,1-9.3-0.6-13.8-1.3c-6.3-1.4-13.7-1.8-20.2-0.3
		c-3,0.6-6,1.3-8.9,2.1c-1.8,0.2-3.8,0.5-5.5,0c-1.4-0.7-0.8-2.5-1.3-3.8c0.1-1-0.3-1.8-0.3-2.7c-0.1-0.3-0.2-0.7-0.2-1
		c0.6,0.1,1.2,0.5,1.8,0.7c3.3,0.6,6.3-0.4,9.3-1c3-0.6,6-1.1,9.1-1.4c3.5,0,7.2-0.2,10.5,0.4c1.1,0,2,0.3,3.1,0.4
		c2.2,0.3,4.2,0.9,6.5,1c0.4,0.1,0.8,0.1,1.2,0.2c3.5,0.6,7.5,1.5,10.9,0C151.7,76.4,151.1,77.7,150.9,79.1L150.9,79.1z M149.8,74.3
		c0,0.6-0.6,0.5-0.9,0.7H148c-0.2-0.3-0.1-0.8-0.1-1.1C148.5,74,149.2,74,149.8,74.3L149.8,74.3z M149.4,73.3
		c0.4-0.4-0.1-2.9,1.1-1.3c0,0.3,0,0.8-0.3,1C150,73.2,149.7,73.5,149.4,73.3L149.4,73.3z M152.6,72.9c-0.4,0.7-0.9,1.2-1.7,1.3
		c0-1,0.9-1.6,0.6-2.7c-0.5-0.8-1.5-1-2.5-0.8c-0.4,0.2-0.2,0.6-0.3,1l-0.2,1.3c-0.8,0-0.8-0.7-1.1-1.3c0-0.8,0.4-1.7,1.2-2.1
		c0.6-0.3,1.7-0.3,2.3,0.1c0.5,0.1,1.1,0.4,1.3,0.8C152.9,71.2,152.7,72.2,152.6,72.9L152.6,72.9z"/>
	<rect y="134.3" fill="#333333" width="249.9" height="1.3"/>
	<path fill-rule="evenodd" clip-rule="evenodd" fill="#333333" d="M9.8,157.7H4.2l-0.7,1.5c-0.2,0.5-0.3,0.9-0.3,1.3
		c0,0.4,0.2,0.8,0.5,1c0.2,0.1,0.7,0.2,1.5,0.3v0.4H0.1v-0.4c0.6-0.1,1-0.3,1.4-0.7c0.4-0.4,0.8-1.2,1.3-2.4l5.6-12.6h0.2l5.7,12.9
		c0.5,1.2,1,2,1.3,2.3c0.3,0.2,0.6,0.4,1.1,0.4v0.4H9.2v-0.4h0.3c0.6,0,1-0.1,1.3-0.3c0.2-0.1,0.3-0.3,0.3-0.5c0-0.1,0-0.3-0.1-0.4
		c0-0.1-0.1-0.4-0.3-0.9L9.8,157.7L9.8,157.7z M9.4,156.8L7,151.4l-2.4,5.4H9.4L9.4,156.8z"/>
	<path fill="#333333" d="M26.2,151.3v8.5c0,0.8,0.1,1.3,0.2,1.6c0.2,0.2,0.5,0.3,0.9,0.4v0.4H23v-1.5c-0.5,0.6-1,1.1-1.6,1.4
		c-0.5,0.3-1.1,0.4-1.7,0.4c-0.6,0-1.2-0.2-1.6-0.6c-0.5-0.4-0.8-0.8-1-1.3c-0.2-0.5-0.2-1.4-0.2-2.6v-4.3c0-0.8-0.1-1.3-0.2-1.5
		c-0.1-0.2-0.5-0.3-0.9-0.4v-0.4h4.4v7.4c0,0.8,0,1.3,0.1,1.5c0.1,0.2,0.2,0.4,0.3,0.5c0.2,0.1,0.3,0.2,0.6,0.2
		c0.3,0,0.5-0.1,0.8-0.2c0.3-0.2,0.7-0.6,1.1-1.2v-5.8c0-0.8-0.1-1.3-0.2-1.5c-0.1-0.2-0.5-0.3-0.9-0.4v-0.4H26.2L26.2,151.3z"/>
	<path fill="#333333" d="M34.9,151l0.2,3.7h-0.4c-0.5-1.1-1-1.9-1.5-2.3c-0.5-0.4-1-0.6-1.5-0.6c-0.3,0-0.6,0.1-0.8,0.3
		c-0.2,0.2-0.3,0.5-0.3,0.7c0,0.2,0.1,0.4,0.2,0.6c0.2,0.3,0.9,0.9,2.1,1.6c1.1,0.8,1.9,1.4,2.2,2c0.4,0.5,0.5,1.1,0.5,1.8
		c0,0.6-0.2,1.2-0.5,1.8c-0.3,0.6-0.7,1-1.3,1.3c-0.6,0.3-1.2,0.5-1.8,0.5c-0.5,0-1.2-0.2-2.1-0.5c-0.2-0.1-0.4-0.1-0.5-0.1
		c-0.3,0-0.5,0.2-0.6,0.6h-0.4l-0.2-3.9h0.4c0.3,1,0.8,1.8,1.4,2.3c0.6,0.5,1.2,0.8,1.7,0.8c0.4,0,0.7-0.1,0.9-0.3
		c0.2-0.2,0.4-0.5,0.4-0.8c0-0.4-0.1-0.7-0.3-1c-0.2-0.3-0.8-0.7-1.6-1.2c-1.2-0.8-2-1.4-2.3-1.9c-0.5-0.6-0.8-1.3-0.8-2.1
		c0-0.8,0.3-1.6,0.9-2.3c0.6-0.7,1.4-1,2.5-1c0.6,0,1.2,0.1,1.7,0.4c0.2,0.1,0.4,0.2,0.5,0.2c0.1,0,0.3,0,0.3-0.1
		c0.1-0.1,0.2-0.2,0.4-0.5H34.9L34.9,151z"/>
	<path fill="#333333" d="M40.6,147.3v4h2.6v1.2h-2.6v6.7c0,0.6,0,1,0.1,1.2c0.1,0.2,0.2,0.3,0.3,0.4c0.1,0.1,0.3,0.2,0.4,0.2
		c0.5,0,1-0.4,1.4-1.2l0.3,0.3c-0.6,1.5-1.6,2.2-3.1,2.2c-0.7,0-1.3-0.2-1.8-0.6c-0.5-0.4-0.8-0.8-0.9-1.3c-0.1-0.3-0.1-1-0.1-2.1
		v-5.9H36v-0.4c1-0.7,1.8-1.4,2.5-2.2c0.7-0.8,1.3-1.6,1.8-2.5H40.6L40.6,147.3z"/>
	<path fill="#333333" d="M48.3,151.3v2.5c0.7-1.1,1.4-1.9,1.9-2.2c0.5-0.4,1.1-0.6,1.6-0.6c0.4,0,0.8,0.1,1,0.4
		c0.3,0.3,0.4,0.6,0.4,1.1c0,0.5-0.1,0.9-0.4,1.2c-0.2,0.3-0.5,0.4-0.9,0.4c-0.4,0-0.8-0.1-1.1-0.4c-0.3-0.3-0.5-0.4-0.5-0.4
		c-0.1,0-0.2-0.1-0.3-0.1c-0.2,0-0.4,0.1-0.6,0.3c-0.3,0.3-0.6,0.6-0.7,1.1c-0.2,0.8-0.4,1.6-0.4,2.5v2.5l0,0.7c0,0.4,0,0.7,0.1,0.8
		c0.1,0.2,0.2,0.4,0.4,0.5c0.2,0.1,0.5,0.2,0.9,0.2v0.4h-5.9v-0.4c0.5,0,0.8-0.2,1-0.4c0.2-0.2,0.3-0.8,0.3-1.8v-6
		c0-0.6,0-1-0.1-1.2c-0.1-0.2-0.2-0.4-0.3-0.5c-0.1-0.1-0.4-0.2-0.8-0.2v-0.4H48.3L48.3,151.3z"/>
	<path fill-rule="evenodd" clip-rule="evenodd" fill="#333333" d="M59.1,160.6c-1.3,1.2-2.5,1.8-3.6,1.8c-0.6,0-1.1-0.2-1.5-0.6
		c-0.4-0.4-0.6-0.9-0.6-1.5c0-0.8,0.4-1.6,1.1-2.2c0.7-0.7,2.3-1.5,4.7-2.6v-1.1c0-0.8,0-1.3-0.1-1.5c-0.1-0.2-0.3-0.4-0.5-0.6
		c-0.2-0.2-0.5-0.2-0.8-0.2c-0.5,0-0.9,0.1-1.2,0.3c-0.2,0.1-0.3,0.3-0.3,0.5c0,0.2,0.1,0.4,0.3,0.6c0.3,0.3,0.4,0.7,0.4,1
		c0,0.4-0.1,0.7-0.4,1c-0.3,0.3-0.6,0.4-1.1,0.4c-0.5,0-0.9-0.1-1.2-0.4c-0.3-0.3-0.5-0.6-0.5-1c0-0.6,0.2-1.1,0.7-1.6
		c0.4-0.5,1.1-0.9,1.8-1.2c0.8-0.3,1.6-0.4,2.5-0.4c1,0,1.8,0.2,2.4,0.7c0.6,0.4,1,0.9,1.2,1.4c0.1,0.3,0.2,1.1,0.2,2.2v4.2
		c0,0.5,0,0.8,0.1,0.9c0,0.1,0.1,0.2,0.2,0.3c0.1,0.1,0.2,0.1,0.3,0.1c0.2,0,0.4-0.1,0.6-0.4l0.3,0.3c-0.4,0.6-0.8,1-1.2,1.3
		c-0.4,0.3-0.9,0.4-1.4,0.4c-0.6,0-1.1-0.1-1.5-0.4C59.4,161.6,59.2,161.2,59.1,160.6L59.1,160.6z M59.1,159.7v-3.6
		c-0.9,0.5-1.6,1.1-2.1,1.8c-0.3,0.4-0.5,0.8-0.5,1.3c0,0.4,0.1,0.7,0.4,0.9c0.2,0.2,0.5,0.3,0.8,0.3
		C58.2,160.4,58.6,160.2,59.1,159.7L59.1,159.7z"/>
	<path fill="#333333" d="M68.3,146.4v13.5c0,0.8,0.1,1.3,0.3,1.5c0.2,0.2,0.5,0.3,1,0.4v0.4h-5.9v-0.4c0.5,0,0.8-0.2,1.1-0.4
		c0.2-0.2,0.2-0.7,0.2-1.4v-11.2c0-0.8-0.1-1.2-0.3-1.5c-0.2-0.2-0.5-0.3-1-0.4v-0.4H68.3L68.3,146.4z"/>
	<path fill-rule="evenodd" clip-rule="evenodd" fill="#333333" d="M73.3,146c0.5,0,0.9,0.2,1.3,0.5c0.3,0.3,0.5,0.8,0.5,1.3
		s-0.2,0.9-0.5,1.3c-0.3,0.3-0.8,0.5-1.3,0.5c-0.5,0-0.9-0.2-1.3-0.5c-0.3-0.3-0.5-0.8-0.5-1.3s0.2-0.9,0.5-1.3
		C72.4,146.2,72.8,146,73.3,146L73.3,146z M74.9,151.3v8.6c0,0.8,0.1,1.3,0.3,1.5c0.2,0.2,0.5,0.3,1,0.4v0.4h-5.9v-0.4
		c0.5,0,0.8-0.2,1.1-0.4c0.2-0.2,0.2-0.7,0.2-1.4v-6.3c0-0.8-0.1-1.3-0.3-1.5c-0.2-0.2-0.5-0.3-1-0.4v-0.4H74.9L74.9,151.3z"/>
	<path fill-rule="evenodd" clip-rule="evenodd" fill="#333333" d="M82.6,160.6c-1.3,1.2-2.5,1.8-3.6,1.8c-0.6,0-1.1-0.2-1.5-0.6
		c-0.4-0.4-0.6-0.9-0.6-1.5c0-0.8,0.4-1.6,1.1-2.2c0.7-0.7,2.3-1.5,4.7-2.6v-1.1c0-0.8,0-1.3-0.1-1.5c-0.1-0.2-0.3-0.4-0.5-0.6
		c-0.2-0.2-0.5-0.2-0.8-0.2c-0.5,0-0.9,0.1-1.2,0.3c-0.2,0.1-0.3,0.3-0.3,0.5c0,0.2,0.1,0.4,0.3,0.6c0.3,0.3,0.4,0.7,0.4,1
		c0,0.4-0.1,0.7-0.4,1c-0.3,0.3-0.6,0.4-1.1,0.4c-0.5,0-0.9-0.1-1.2-0.4c-0.3-0.3-0.5-0.6-0.5-1c0-0.6,0.2-1.1,0.7-1.6
		c0.4-0.5,1.1-0.9,1.8-1.2c0.8-0.3,1.6-0.4,2.5-0.4c1,0,1.8,0.2,2.4,0.7c0.6,0.4,1,0.9,1.2,1.4c0.1,0.3,0.2,1.1,0.2,2.2v4.2
		c0,0.5,0,0.8,0.1,0.9c0,0.1,0.1,0.2,0.2,0.3s0.2,0.1,0.3,0.1c0.2,0,0.4-0.1,0.6-0.4l0.3,0.3c-0.4,0.6-0.8,1-1.2,1.3
		c-0.4,0.3-0.9,0.4-1.4,0.4c-0.6,0-1.1-0.1-1.5-0.4C82.9,161.6,82.7,161.2,82.6,160.6L82.6,160.6z M82.6,159.7v-3.6
		c-0.9,0.5-1.6,1.1-2.1,1.8c-0.3,0.4-0.5,0.8-0.5,1.3c0,0.4,0.1,0.7,0.4,0.9c0.2,0.2,0.5,0.3,0.8,0.3
		C81.6,160.4,82.1,160.2,82.6,159.7L82.6,159.7z"/>
	<path fill="#333333" d="M91.7,151.3v1.4c0.6-0.6,1.1-1,1.6-1.3c0.5-0.3,1.1-0.4,1.6-0.4c0.7,0,1.3,0.2,1.8,0.6
		c0.5,0.4,0.8,0.9,0.9,1.5c0.1,0.4,0.2,1.3,0.2,2.5v4.2c0,0.8,0.1,1.4,0.2,1.6c0.2,0.2,0.5,0.3,1,0.4v0.4h-5.5v-0.4
		c0.4-0.1,0.7-0.2,0.9-0.5c0.1-0.2,0.2-0.7,0.2-1.4V155c0-0.9,0-1.5-0.1-1.7c-0.1-0.2-0.2-0.4-0.4-0.5c-0.2-0.1-0.3-0.2-0.5-0.2
		c-0.7,0-1.3,0.5-1.9,1.4v5.8c0,0.8,0.1,1.3,0.2,1.5c0.2,0.2,0.4,0.4,0.8,0.4v0.4h-5.5v-0.4c0.5,0,0.8-0.2,1-0.4
		c0.1-0.2,0.2-0.7,0.2-1.5v-6.1c0-0.8-0.1-1.3-0.2-1.5c-0.1-0.2-0.5-0.3-0.9-0.4v-0.4H91.7L91.7,151.3z"/>
	<path fill="#333333" d="M118.5,146.4v4.3h-0.4c-0.2-1-0.5-1.7-0.8-2.1c-0.3-0.4-0.7-0.8-1.2-1c-0.3-0.1-0.8-0.2-1.5-0.2h-1.2v12.2
		c0,0.8,0,1.3,0.1,1.5c0.1,0.2,0.3,0.4,0.5,0.5c0.3,0.1,0.6,0.2,1.1,0.2h0.5v0.4h-8.2v-0.4h0.5c0.5,0,0.8-0.1,1.1-0.2
		c0.2-0.1,0.4-0.3,0.5-0.6c0.1-0.2,0.1-0.7,0.1-1.5v-12.2h-1.1c-1.1,0-1.8,0.2-2.3,0.7c-0.7,0.6-1.1,1.5-1.3,2.7h-0.4v-4.3H118.5
		L118.5,146.4z"/>
	<path fill-rule="evenodd" clip-rule="evenodd" fill="#333333" d="M123.8,160.6c-1.3,1.2-2.5,1.8-3.6,1.8c-0.6,0-1.1-0.2-1.5-0.6
		c-0.4-0.4-0.6-0.9-0.6-1.5c0-0.8,0.4-1.6,1.1-2.2c0.7-0.7,2.3-1.5,4.7-2.6v-1.1c0-0.8,0-1.3-0.1-1.5c-0.1-0.2-0.3-0.4-0.5-0.6
		c-0.2-0.2-0.5-0.2-0.8-0.2c-0.5,0-0.9,0.1-1.2,0.3c-0.2,0.1-0.3,0.3-0.3,0.5c0,0.2,0.1,0.4,0.3,0.6c0.3,0.3,0.4,0.7,0.4,1
		c0,0.4-0.1,0.7-0.4,1c-0.3,0.3-0.6,0.4-1.1,0.4c-0.5,0-0.9-0.1-1.2-0.4c-0.3-0.3-0.5-0.6-0.5-1c0-0.6,0.2-1.1,0.7-1.6
		c0.4-0.5,1.1-0.9,1.8-1.2c0.8-0.3,1.6-0.4,2.5-0.4c1,0,1.8,0.2,2.4,0.7c0.6,0.4,1,0.9,1.2,1.4c0.1,0.3,0.2,1.1,0.2,2.2v4.2
		c0,0.5,0,0.8,0.1,0.9c0,0.1,0.1,0.2,0.2,0.3c0.1,0.1,0.2,0.1,0.3,0.1c0.2,0,0.4-0.1,0.6-0.4l0.3,0.3c-0.4,0.6-0.8,1-1.2,1.3
		c-0.4,0.3-0.9,0.4-1.4,0.4c-0.6,0-1.1-0.1-1.5-0.4C124.1,161.6,123.9,161.2,123.8,160.6L123.8,160.6z M123.8,159.7v-3.6
		c-0.9,0.5-1.6,1.1-2.1,1.8c-0.3,0.4-0.5,0.8-0.5,1.3c0,0.4,0.1,0.7,0.4,0.9c0.2,0.2,0.5,0.3,0.8,0.3
		C122.9,160.4,123.3,160.2,123.8,159.7L123.8,159.7z"/>
	<path fill="#333333" d="M135.4,155.5l1.9,3.6c0.7,1.2,1.2,2,1.5,2.4c0.2,0.2,0.5,0.3,0.9,0.3v0.4h-6.1v-0.4c0.5,0,0.8-0.1,0.9-0.2
		c0.1-0.1,0.2-0.2,0.2-0.3c0-0.2-0.1-0.6-0.4-1l-0.9-1.8l-0.8,1.2c-0.4,0.5-0.6,0.9-0.6,1c-0.1,0.1-0.1,0.3-0.1,0.4
		c0,0.2,0,0.3,0.1,0.5c0.1,0.1,0.2,0.2,0.3,0.3c0.1,0.1,0.4,0.1,0.7,0.1v0.4h-4.3v-0.4c0.5,0,1-0.1,1.4-0.4c0.4-0.3,1.1-1.1,1.9-2.3
		l0.9-1.3l-1.9-3.5c-0.6-1.1-1.1-1.8-1.4-2.1c-0.3-0.3-0.6-0.4-1-0.4v-0.4h6v0.4l-0.3,0l-0.6,0.2c-0.1,0.1-0.1,0.1-0.1,0.3
		c0,0.1,0,0.2,0.1,0.4c0,0.1,0.1,0.3,0.3,0.6l0.8,1.6l0.4-0.6c0.6-0.9,0.9-1.4,0.9-1.8c0-0.2-0.1-0.3-0.2-0.4
		c-0.1-0.1-0.4-0.2-0.7-0.2v-0.4h3.8v0.4c-0.5,0-0.9,0.2-1.3,0.4c-0.4,0.3-0.9,0.8-1.4,1.6L135.4,155.5L135.4,155.5z"/>
	<path fill-rule="evenodd" clip-rule="evenodd" fill="#333333" d="M146,160.6c-1.3,1.2-2.5,1.8-3.6,1.8c-0.6,0-1.1-0.2-1.5-0.6
		c-0.4-0.4-0.6-0.9-0.6-1.5c0-0.8,0.4-1.6,1.1-2.2c0.7-0.7,2.3-1.5,4.7-2.6v-1.1c0-0.8,0-1.3-0.1-1.5c-0.1-0.2-0.3-0.4-0.5-0.6
		c-0.2-0.2-0.5-0.2-0.8-0.2c-0.5,0-0.9,0.1-1.2,0.3c-0.2,0.1-0.3,0.3-0.3,0.5c0,0.2,0.1,0.4,0.3,0.6c0.3,0.3,0.4,0.7,0.4,1
		c0,0.4-0.1,0.7-0.4,1c-0.3,0.3-0.6,0.4-1.1,0.4c-0.5,0-0.9-0.1-1.2-0.4c-0.3-0.3-0.5-0.6-0.5-1c0-0.6,0.2-1.1,0.7-1.6
		c0.4-0.5,1.1-0.9,1.8-1.2c0.8-0.3,1.6-0.4,2.5-0.4c1,0,1.8,0.2,2.4,0.7c0.6,0.4,1,0.9,1.2,1.4c0.1,0.3,0.2,1.1,0.2,2.2v4.2
		c0,0.5,0,0.8,0.1,0.9c0,0.1,0.1,0.2,0.2,0.3c0.1,0.1,0.2,0.1,0.3,0.1c0.2,0,0.4-0.1,0.6-0.4l0.3,0.3c-0.4,0.6-0.8,1-1.2,1.3
		c-0.4,0.3-0.9,0.4-1.4,0.4c-0.6,0-1.1-0.1-1.5-0.4C146.2,161.6,146,161.2,146,160.6L146,160.6z M146,159.7v-3.6
		c-0.9,0.5-1.6,1.1-2.1,1.8c-0.3,0.4-0.5,0.8-0.5,1.3c0,0.4,0.1,0.7,0.4,0.9c0.2,0.2,0.5,0.3,0.8,0.3
		C145,160.4,145.4,160.2,146,159.7L146,159.7z"/>
	<path fill="#333333" d="M155.2,147.3v4h2.6v1.2h-2.6v6.7c0,0.6,0,1,0.1,1.2c0.1,0.2,0.2,0.3,0.3,0.4c0.1,0.1,0.3,0.2,0.4,0.2
		c0.5,0,1-0.4,1.4-1.2l0.3,0.3c-0.6,1.5-1.6,2.2-3.1,2.2c-0.7,0-1.3-0.2-1.8-0.6c-0.5-0.4-0.8-0.8-0.9-1.3c-0.1-0.3-0.1-1-0.1-2.1
		v-5.9h-1.4v-0.4c1-0.7,1.8-1.4,2.5-2.2c0.7-0.8,1.3-1.6,1.8-2.5H155.2L155.2,147.3z"/>
	<path fill-rule="evenodd" clip-rule="evenodd" fill="#333333" d="M161.7,146c0.5,0,0.9,0.2,1.3,0.5c0.3,0.3,0.5,0.8,0.5,1.3
		s-0.2,0.9-0.5,1.3c-0.3,0.3-0.8,0.5-1.3,0.5c-0.5,0-0.9-0.2-1.3-0.5c-0.3-0.3-0.5-0.8-0.5-1.3s0.2-0.9,0.5-1.3
		C160.8,146.2,161.2,146,161.7,146L161.7,146z M163.3,151.3v8.6c0,0.8,0.1,1.3,0.3,1.5c0.2,0.2,0.5,0.3,1,0.4v0.4h-5.9v-0.4
		c0.5,0,0.8-0.2,1.1-0.4c0.2-0.2,0.2-0.7,0.2-1.4v-6.3c0-0.8-0.1-1.3-0.3-1.5c-0.2-0.2-0.5-0.3-1-0.4v-0.4H163.3L163.3,151.3z"/>
	<path fill-rule="evenodd" clip-rule="evenodd" fill="#333333" d="M170.1,151c0.9,0,1.8,0.2,2.6,0.7c0.8,0.5,1.4,1.2,1.8,2.1
		c0.4,0.9,0.6,1.9,0.6,3c0,1.5-0.4,2.8-1.2,3.9c-0.9,1.3-2.3,1.9-3.9,1.9c-1.6,0-2.9-0.6-3.8-1.7c-0.9-1.1-1.3-2.5-1.3-4
		c0-1.6,0.4-2.9,1.3-4.1C167.3,151.6,168.5,151,170.1,151L170.1,151z M170.1,151.8c-0.4,0-0.7,0.2-1,0.5c-0.3,0.3-0.5,0.9-0.6,1.8
		c-0.1,0.9-0.1,2.1-0.1,3.7c0,0.8,0.1,1.6,0.2,2.3c0.1,0.5,0.3,1,0.5,1.3c0.3,0.3,0.6,0.4,1,0.4c0.3,0,0.6-0.1,0.9-0.3
		c0.3-0.3,0.5-0.6,0.6-1.1c0.2-0.7,0.2-2.2,0.2-4.5c0-1.3-0.1-2.2-0.2-2.7c-0.1-0.5-0.4-0.9-0.7-1.1
		C170.7,151.9,170.5,151.8,170.1,151.8L170.1,151.8z"/>
	<path fill="#333333" d="M180.3,151.3v1.4c0.6-0.6,1.1-1,1.6-1.3c0.5-0.3,1.1-0.4,1.6-0.4c0.7,0,1.3,0.2,1.8,0.6
		c0.5,0.4,0.8,0.9,0.9,1.5c0.1,0.4,0.2,1.3,0.2,2.5v4.2c0,0.8,0.1,1.4,0.2,1.6c0.2,0.2,0.5,0.3,1,0.4v0.4h-5.5v-0.4
		c0.4-0.1,0.7-0.2,0.9-0.5c0.1-0.2,0.2-0.7,0.2-1.4V155c0-0.9,0-1.5-0.1-1.7c-0.1-0.2-0.2-0.4-0.4-0.5c-0.2-0.1-0.3-0.2-0.5-0.2
		c-0.7,0-1.3,0.5-1.9,1.4v5.8c0,0.8,0.1,1.3,0.2,1.5c0.2,0.2,0.4,0.4,0.8,0.4v0.4h-5.5v-0.4c0.5,0,0.8-0.2,1-0.4
		c0.1-0.2,0.2-0.7,0.2-1.5v-6.1c0-0.8-0.1-1.3-0.2-1.5c-0.1-0.2-0.5-0.3-0.9-0.4v-0.4H180.3L180.3,151.3z"/>
	<path fill-rule="evenodd" clip-rule="evenodd" fill="#333333" d="M201.8,146.2c2.5-0.1,4.5,0.6,6.1,2.2c1.6,1.6,2.4,3.5,2.4,5.8
		c0,2-0.6,3.8-1.8,5.3c-1.5,2-3.7,3-6.6,3c-2.8,0-5-1-6.6-2.9c-1.2-1.5-1.8-3.3-1.8-5.4c0-2.3,0.8-4.3,2.4-5.8
		C197.5,146.8,199.5,146.1,201.8,146.2L201.8,146.2z M202,146.9c-1.4,0-2.5,0.7-3.3,2.2c-0.6,1.2-0.9,2.9-0.9,5.2
		c0,2.7,0.5,4.7,1.4,6c0.7,0.9,1.6,1.3,2.8,1.3c0.8,0,1.5-0.2,2-0.6c0.7-0.5,1.2-1.3,1.6-2.4c0.4-1.1,0.6-2.5,0.6-4.3
		c0-2.1-0.2-3.6-0.6-4.7c-0.4-1-0.9-1.8-1.5-2.2C203.4,147.2,202.7,146.9,202,146.9L202,146.9z"/>
	<path fill="#333333" d="M215.7,152.4v7.5c0,0.7,0.1,1.2,0.2,1.4c0.2,0.3,0.7,0.4,1.4,0.4v0.4h-6.4v-0.4c0.5,0,0.8-0.1,1-0.2
		c0.2-0.1,0.4-0.3,0.4-0.4c0.1-0.2,0.1-0.6,0.1-1.2v-7.5h-1.6v-1.1h1.6v-0.8l0-0.5c0-1.1,0.4-2,1.2-2.8c0.8-0.7,1.9-1.1,3.3-1.1
		c1,0,1.7,0.2,2.1,0.5c0.5,0.4,0.7,0.8,0.7,1.2c0,0.3-0.1,0.7-0.4,0.9c-0.3,0.3-0.7,0.4-1.1,0.4c-0.4,0-0.7-0.1-1-0.3
		c-0.2-0.2-0.3-0.4-0.3-0.7c0-0.1,0-0.2,0.1-0.4c0-0.1,0-0.3,0-0.4c0-0.2,0-0.3-0.1-0.4c-0.1-0.1-0.3-0.2-0.5-0.2
		c-0.2,0-0.4,0.1-0.6,0.3c-0.1,0.2-0.2,0.5-0.2,0.9l0,2v1.4h1.6v1.1H215.7L215.7,152.4z"/>
	<path fill="#333333" d="M223.3,151.4h6.3v8.5c0,0.7,0.1,1.2,0.2,1.5c0.2,0.2,0.5,0.4,1,0.4v0.4h-5.6v-0.4c0.5-0.1,0.8-0.2,1-0.5
		c0.1-0.2,0.2-0.6,0.2-1.3v-7.4h-3.1v7.4c0,0.7,0.1,1.1,0.2,1.3c0.2,0.3,0.5,0.5,1,0.6v0.4h-5.7v-0.4c0.5,0,0.9-0.2,1.1-0.5
		c0.1-0.2,0.2-0.6,0.2-1.4v-7.4h-1.3v-1.2h1.3c0-1.2,0.2-2.2,0.6-2.9c0.4-0.7,1-1.3,1.9-1.7c0.9-0.4,1.9-0.7,3-0.7
		c0.8,0,1.4,0.1,2,0.3c0.6,0.2,1,0.5,1.2,0.8c0.3,0.3,0.4,0.7,0.4,1c0,0.4-0.1,0.7-0.4,1c-0.3,0.3-0.7,0.4-1.2,0.4
		c-0.5,0-0.8-0.1-1-0.3c-0.3-0.3-0.4-0.5-0.4-0.8c0-0.2,0.1-0.4,0.2-0.7c0.2-0.2,0.2-0.4,0.2-0.5c0-0.2-0.1-0.3-0.2-0.4
		c-0.2-0.1-0.5-0.2-1-0.2c-0.5,0-0.9,0.1-1.1,0.3c-0.3,0.2-0.6,0.6-0.7,0.9c-0.1,0.3-0.2,0.9-0.2,1.8V151.4L223.3,151.4z"/>
	<path fill="#333333" d="M239.8,159.4l0.4,0.3c-0.5,1-1.2,1.7-1.9,2.1c-0.8,0.5-1.6,0.7-2.4,0.7c-1.4,0-2.6-0.5-3.5-1.6
		c-0.9-1.1-1.3-2.4-1.3-3.9c0-1.5,0.4-2.8,1.2-3.9c1-1.4,2.3-2,3.9-2c1.1,0,2,0.3,2.7,0.8c0.7,0.6,1,1.2,1,1.9
		c0,0.4-0.1,0.8-0.4,1.1c-0.3,0.3-0.6,0.4-1,0.4c-0.5,0-0.8-0.2-1.1-0.5c-0.3-0.3-0.5-0.8-0.5-1.6c0-0.5-0.2-0.8-0.3-1
		c-0.2-0.2-0.4-0.3-0.6-0.3c-0.4,0-0.7,0.2-1,0.6c-0.4,0.6-0.6,1.5-0.6,2.7c0,1,0.2,2,0.5,2.9c0.3,0.9,0.8,1.6,1.3,2.1
		c0.4,0.3,0.9,0.5,1.5,0.5c0.4,0,0.7-0.1,1.1-0.3C238.9,160.2,239.4,159.9,239.8,159.4L239.8,159.4z"/>
	<path fill-rule="evenodd" clip-rule="evenodd" fill="#333333" d="M250,156.4h-6c0.1,1.4,0.5,2.6,1.2,3.4c0.5,0.6,1.2,1,1.9,1
		c0.5,0,0.9-0.1,1.3-0.4c0.4-0.3,0.8-0.7,1.2-1.4l0.4,0.3c-0.6,1.2-1.2,2.1-2,2.6c-0.7,0.5-1.5,0.7-2.5,0.7c-1.6,0-2.8-0.6-3.7-1.9
		c-0.7-1-1-2.2-1-3.7c0-1.8,0.5-3.3,1.5-4.3c1-1.1,2.1-1.6,3.5-1.6c1.1,0,2.1,0.5,2.9,1.4C249.5,153.2,249.9,154.6,250,156.4
		L250,156.4z M247.1,155.6c0-1.2-0.1-2.1-0.2-2.6c-0.1-0.5-0.3-0.8-0.6-1.1c-0.2-0.1-0.4-0.2-0.7-0.2c-0.4,0-0.7,0.2-1,0.6
		c-0.5,0.7-0.7,1.6-0.7,2.8v0.4H247.1L247.1,155.6z"/>
</g>
</svg>
